<?xml version="1.0" encoding="UTF-8"?><svg id="Layer_1" xmlns="http://www.w3.org/2000/svg" xmlns:xlink="http://www.w3.org/1999/xlink" viewBox="0 0 300.39 113.94"><defs><linearGradient id="linear-gradient" x1="10.19" y1="45.7" x2="291.25" y2="45.7" gradientTransform="translate(0 7.14)" gradientUnits="userSpaceOnUse"><stop offset="0" stop-color="#ff2056"/><stop offset="1" stop-color="#20ffa6"/></linearGradient></defs><path d="m93.75,7.55v10.36h-2.27V7.55h2.27Zm1.93,6.92h-2.49v-2.02h1.99c.55,0,.96-.12,1.23-.36.27-.24.41-.6.41-1.08s-.14-.85-.41-1.08c-.27-.24-.68-.36-1.23-.36h-1.99v-2.02h2.49c.71,0,1.33.14,1.86.43.53.29.94.69,1.23,1.21.29.52.44,1.12.44,1.81s-.15,1.29-.44,1.81c-.29.52-.71.92-1.23,1.21-.53.29-1.15.43-1.86.43Z" style="fill:#faecd8; stroke-width:0px;"/><path d="m103.27,18.09c-.7,0-1.32-.16-1.87-.48-.55-.32-.98-.75-1.29-1.31-.31-.56-.47-1.19-.47-1.91s.15-1.37.46-1.92c.3-.56.73-.99,1.27-1.31s1.16-.48,1.86-.48c.74,0,1.37.15,1.9.46.53.3.94.73,1.23,1.29s.43,1.22.43,1.98v.55l-6.02.03.03-1.33h3.85c0-.37-.13-.67-.38-.89s-.6-.33-1.04-.33c-.36,0-.66.07-.89.21-.23.14-.4.36-.51.65-.11.29-.17.67-.17,1.13,0,.65.13,1.14.4,1.45.27.31.68.47,1.24.47.41,0,.75-.07,1.02-.21.27-.14.44-.34.52-.59h1.97c-.12.77-.5,1.39-1.15,1.85-.64.46-1.45.69-2.41.69Z" style="fill:#faecd8; stroke-width:0px;"/><path d="m112.89,10.91v2.03h-.69c-.62,0-1.1.15-1.45.45s-.53.79-.53,1.48v3.04h-2.16v-6.99h2.03l.17,1.5h-.2c.09-.47.31-.85.64-1.16.33-.3.78-.46,1.35-.46.13,0,.26,0,.4.02.14.01.28.04.43.08Z" style="fill:#faecd8; stroke-width:0px;"/><path d="m113.39,14.38c0-.72.15-1.36.46-1.91.31-.56.73-.99,1.27-1.31.54-.32,1.15-.48,1.85-.48,1.04,0,1.88.27,2.52.8.64.53,1,1.26,1.06,2.17h-2.17c-.07-.35-.22-.62-.44-.78-.22-.17-.52-.25-.89-.25-.3,0-.56.07-.79.22-.23.15-.4.35-.52.61-.12.26-.18.57-.18.94s.06.69.17.96c.12.27.29.47.5.61.22.14.48.21.79.21.38,0,.69-.09.92-.26.23-.17.38-.43.44-.78h2.17c-.05.59-.23,1.1-.54,1.55s-.73.79-1.24,1.04c-.51.25-1.1.38-1.75.38-.74,0-1.38-.15-1.93-.46-.55-.31-.97-.74-1.27-1.3-.3-.56-.45-1.21-.45-1.95Z" style="fill:#faecd8; stroke-width:0px;"/><path d="m124.98,18.09c-.7,0-1.32-.16-1.87-.48-.55-.32-.97-.75-1.29-1.31-.31-.56-.47-1.19-.47-1.91s.15-1.37.46-1.92.73-.99,1.27-1.31c.54-.32,1.16-.48,1.86-.48.74,0,1.37.15,1.9.46s.94.73,1.23,1.29c.29.56.43,1.22.43,1.98v.55l-6.02.03.03-1.33h3.85c0-.37-.13-.67-.38-.89s-.6-.33-1.04-.33c-.36,0-.66.07-.89.21-.23.14-.4.36-.51.65-.11.29-.17.67-.17,1.13,0,.65.13,1.14.4,1.45.27.31.68.47,1.24.47.41,0,.75-.07,1.02-.21.27-.14.44-.34.52-.59h1.97c-.12.77-.5,1.39-1.15,1.85-.64.46-1.45.69-2.41.69Z" style="fill:#faecd8; stroke-width:0px;"/><path d="m131.94,17.91h-2.16v-7h2.03l.14.73c.21-.3.51-.53.89-.7s.8-.25,1.25-.25c.83,0,1.48.25,1.94.76s.69,1.22.69,2.13v4.33h-2.16v-3.81c0-.44-.11-.79-.34-1.06-.22-.27-.52-.4-.9-.4-.43,0-.77.13-1.02.39s-.38.6-.38,1.04v3.84Z" style="fill:#faecd8; stroke-width:0px;"/><path d="m137.61,10.91h4.82v1.79h-4.82v-1.79Zm3.49,7h-2.16v-9.17h2.16v9.17Z" style="fill:#faecd8; stroke-width:0px;"/><path d="m151.85,18.08c-1.04,0-1.93-.22-2.69-.65s-1.34-1.05-1.75-1.85-.62-1.74-.62-2.83.21-2.03.64-2.83c.43-.8,1.03-1.43,1.81-1.87s1.68-.67,2.7-.67c.87,0,1.64.16,2.32.47.68.31,1.23.75,1.66,1.32.43.57.7,1.24.8,2.02h-2.39c-.15-.52-.44-.92-.86-1.2-.42-.28-.95-.42-1.57-.42-.56,0-1.04.13-1.45.38s-.72.61-.93,1.08c-.21.47-.32,1.04-.32,1.7s.11,1.2.33,1.68c.22.48.53.84.94,1.1s.88.38,1.44.38c.63,0,1.17-.15,1.62-.44s.74-.7.88-1.21h2.35c-.12.77-.4,1.44-.85,2.02-.44.58-1.01,1.03-1.7,1.34-.69.32-1.47.48-2.34.48Z" style="fill:#faecd8; stroke-width:0px;"/><path d="m160.07,17.91h-2.16V7.35h2.17v4.28c.21-.3.51-.53.89-.7s.79-.25,1.25-.25c.83,0,1.48.25,1.94.76s.69,1.22.69,2.13v4.33h-2.16v-3.81c0-.3-.05-.56-.15-.77-.1-.21-.24-.38-.43-.5-.18-.12-.4-.18-.65-.18-.28,0-.53.06-.74.18s-.37.28-.49.5c-.12.21-.17.47-.17.76v3.84Z" style="fill:#faecd8; stroke-width:0px;"/><path d="m168.51,18.09c-.74,0-1.32-.2-1.76-.61-.43-.41-.65-.95-.65-1.63,0-.64.22-1.16.67-1.54.44-.38,1.08-.61,1.92-.67l1.96-.15v-.11c0-.23-.05-.43-.14-.58-.09-.15-.23-.27-.4-.35-.17-.08-.39-.12-.65-.12-.46,0-.8.08-1.04.25-.24.17-.36.41-.36.73h-1.79c0-.53.13-.99.41-1.39.27-.39.66-.69,1.16-.91s1.08-.32,1.74-.32,1.26.12,1.73.36c.47.24.83.6,1.08,1.06s.37,1.04.37,1.71v4.09h-1.9l-.14-.92c-.11.32-.38.58-.79.79s-.88.31-1.41.31Zm.76-1.6c.41,0,.75-.1,1.01-.3.26-.2.39-.5.39-.9v-.38l-1.09.1c-.47.04-.8.11-.99.23s-.29.29-.29.51c0,.25.08.44.24.56.16.12.4.18.73.18Z" style="fill:#faecd8; stroke-width:0px;"/><path d="m176.45,17.91h-2.16v-7h2.03l.14.73c.21-.3.51-.53.89-.7s.79-.25,1.25-.25c.83,0,1.48.25,1.94.76s.69,1.22.69,2.13v4.33h-2.16v-3.81c0-.44-.11-.79-.34-1.06-.22-.27-.52-.4-.9-.4-.43,0-.77.13-1.02.39s-.38.6-.38,1.04v3.84Z" style="fill:#faecd8; stroke-width:0px;"/><path d="m182.42,14.29c0-.71.14-1.33.43-1.88.28-.54.68-.97,1.19-1.27s1.09-.46,1.74-.46c.55,0,1.02.11,1.42.34.4.22.67.52.82.88l-.21.14.17-1.12h2.03v6.55c0,.83-.15,1.55-.46,2.15-.31.6-.75,1.06-1.32,1.39-.57.32-1.26.48-2.06.48-1.07,0-1.95-.29-2.62-.86-.67-.57-1.06-1.36-1.16-2.35h2.18c.02.39.17.7.45.92s.66.33,1.13.33c.52,0,.94-.14,1.24-.43.3-.29.46-.68.46-1.18v-1.48l.24.18c-.15.36-.44.66-.87.88-.43.22-.92.34-1.48.34-.65,0-1.23-.15-1.73-.45-.5-.3-.89-.71-1.17-1.25-.28-.53-.42-1.15-.42-1.85Zm2.17-.06c0,.34.07.63.21.89.14.26.33.46.57.61.24.15.52.22.84.22s.61-.07.86-.22c.25-.15.44-.35.57-.6.13-.26.2-.56.2-.9s-.07-.64-.2-.89c-.14-.25-.33-.44-.57-.58-.25-.14-.54-.21-.88-.21-.32,0-.6.07-.84.21-.24.14-.43.34-.57.59-.13.25-.2.55-.2.88Z" style="fill:#faecd8; stroke-width:0px;"/><path d="m194.88,18.09c-.7,0-1.32-.16-1.87-.48-.55-.32-.97-.75-1.29-1.31-.31-.56-.47-1.19-.47-1.91s.15-1.37.46-1.92.73-.99,1.27-1.31c.54-.32,1.16-.48,1.86-.48.74,0,1.37.15,1.9.46s.94.73,1.23,1.29c.29.56.43,1.22.43,1.98v.55l-6.02.03.03-1.33h3.85c0-.37-.13-.67-.38-.89s-.6-.33-1.04-.33c-.36,0-.66.07-.89.21-.23.14-.4.36-.51.65-.11.29-.17.67-.17,1.13,0,.65.13,1.14.4,1.45.27.31.68.47,1.24.47.41,0,.75-.07,1.02-.21.27-.14.44-.34.52-.59h1.97c-.12.77-.5,1.39-1.15,1.85-.64.46-1.45.69-2.41.69Z" style="fill:#faecd8; stroke-width:0px;"/><path d="m202.63,18.09c-.67,0-1.26-.15-1.75-.45-.5-.3-.88-.72-1.16-1.27-.28-.55-.41-1.19-.41-1.92s.14-1.4.42-1.97c.28-.56.68-1.01,1.2-1.32s1.13-.48,1.84-.48c.44,0,.85.08,1.23.24.38.16.67.37.88.63v-4.2h2.16v10.56h-2.03l-.11-.9c-.19.32-.48.58-.89.78-.41.2-.86.3-1.37.3Zm.52-1.97c.34,0,.63-.07.89-.22.26-.15.46-.35.6-.62s.22-.57.22-.92-.07-.66-.22-.92-.35-.46-.6-.61c-.26-.14-.55-.22-.89-.22s-.63.07-.88.22-.45.35-.58.62c-.14.26-.2.56-.2.91s.07.65.2.91.33.47.58.62c.25.15.55.22.88.22Z" style="fill:#faecd8; stroke-width:0px;"/><path d="m251.72,93.82h7v1.79h-7v-1.79Zm4.4-2.6v7.01h-1.79v-7.01h1.79Z" style="fill:#faecd8; stroke-width:0px;"/><path d="m264.01,99.6c-.74,0-1.39-.15-1.95-.45-.56-.3-.99-.72-1.3-1.25-.31-.54-.46-1.16-.46-1.87h2.24c0,.49.14.87.41,1.15.27.28.64.42,1.12.42.34,0,.64-.07.88-.21.24-.14.43-.34.57-.6.14-.26.2-.57.2-.94s-.06-.66-.19-.91-.31-.45-.55-.58c-.24-.13-.53-.2-.88-.2s-.66.08-.95.24c-.29.16-.5.37-.63.62l-2.07-.39,1.3-5.56h5.63v2.1h-4.42l.57-.56-.71,2.67-.76.43c.19-.46.51-.81.96-1.06.45-.25.99-.38,1.6-.38.67,0,1.26.14,1.78.42.51.28.91.68,1.2,1.19.29.51.43,1.12.43,1.82,0,.77-.17,1.45-.51,2.04-.34.58-.81,1.04-1.41,1.37-.6.33-1.3.49-2.11.49Z" style="fill:#faecd8; stroke-width:0px;"/><path d="m268.9,94.28c0-1.07.19-2.01.57-2.82.38-.81.91-1.44,1.59-1.9.68-.46,1.47-.69,2.37-.69s1.7.23,2.37.69c.68.46,1.2,1.09,1.58,1.9.38.81.57,1.75.57,2.82s-.18,2-.54,2.8-.88,1.43-1.55,1.87-1.48.67-2.44.67-1.75-.22-2.43-.67-1.19-1.07-1.55-1.87-.54-1.74-.54-2.8Zm2.24,0c0,.74.09,1.36.27,1.85.18.5.44.87.78,1.12.34.25.75.37,1.22.37s.9-.12,1.23-.37c.34-.25.59-.62.78-1.12.18-.5.27-1.12.27-1.85s-.09-1.4-.27-1.9c-.18-.5-.44-.88-.78-1.13s-.75-.38-1.23-.38-.88.13-1.22.38-.6.63-.78,1.13c-.18.5-.27,1.14-.27,1.9Z" style="fill:#faecd8; stroke-width:0px;"/><path d="m284.41,91.69c0,.55-.12,1.04-.36,1.46-.24.42-.57.76-.99.99-.42.24-.91.36-1.46.36s-1.02-.12-1.45-.36c-.42-.24-.76-.57-.99-.99s-.36-.91-.36-1.46.12-1.04.36-1.46c.24-.42.57-.76.99-.99.42-.24.91-.36,1.45-.36s1.04.12,1.46.36c.42.24.75.57.99.99.24.42.36.91.36,1.46Zm5.94-2.59l-7.87,10.33h-2.11l7.87-10.33h2.11Zm-7.62,2.59c0-.35-.1-.64-.31-.86s-.48-.33-.81-.33-.61.11-.81.33-.31.51-.31.86.1.63.31.85c.21.22.48.34.81.34s.61-.11.81-.34c.21-.22.31-.51.31-.85Zm9.2,5.11c0,.55-.12,1.04-.36,1.46-.24.42-.57.76-.99.99-.42.24-.91.36-1.46.36s-1.02-.12-1.45-.36c-.42-.24-.76-.57-.99-.99-.24-.42-.36-.91-.36-1.46s.12-1.04.36-1.46c.24-.42.57-.76.99-.99.42-.24.91-.36,1.45-.36s1.04.12,1.46.36c.42.24.75.57.99.99.24.42.36.91.36,1.46Zm-1.68,0c0-.35-.1-.64-.31-.86-.21-.22-.48-.33-.81-.33s-.61.11-.81.33c-.21.22-.31.51-.31.86s.1.63.31.85c.21.22.48.34.81.34s.61-.11.81-.34c.21-.22.31-.51.31-.85Z" style="fill:#faecd8; stroke-width:0px;"/><path d="m11.03,96.43v-1.9h4.79v1.9h-4.79Z" style="fill:#faecd8; stroke-width:0px;"/><path d="m20.83,99.42c-.74,0-1.39-.15-1.95-.45-.56-.3-.99-.72-1.3-1.25-.31-.54-.46-1.16-.46-1.87h2.24c0,.49.14.87.41,1.15.27.28.64.42,1.12.42.34,0,.64-.07.88-.21.24-.14.43-.34.57-.6s.2-.57.2-.94-.06-.66-.19-.91c-.13-.25-.31-.45-.55-.58-.24-.13-.53-.2-.88-.2s-.66.08-.95.24c-.29.16-.5.37-.63.62l-2.07-.39,1.3-5.56h5.63v2.1h-4.42l.57-.56-.71,2.67-.76.43c.19-.46.51-.81.96-1.06.45-.25.99-.38,1.6-.38.67,0,1.26.14,1.78.42.51.28.91.68,1.2,1.19s.43,1.12.43,1.82c0,.77-.17,1.45-.51,2.04-.34.58-.81,1.04-1.41,1.37-.6.33-1.3.49-2.11.49Z" style="fill:#faecd8; stroke-width:0px;"/><path d="m25.71,94.1c0-1.07.19-2.01.57-2.82.38-.81.91-1.44,1.59-1.9.68-.46,1.47-.69,2.37-.69s1.7.23,2.37.69c.68.46,1.2,1.09,1.58,1.9.38.81.57,1.75.57,2.82s-.18,2-.54,2.8-.88,1.43-1.55,1.87-1.48.67-2.44.67-1.75-.22-2.43-.67-1.19-1.07-1.55-1.87-.54-1.74-.54-2.8Zm2.24,0c0,.74.09,1.36.27,1.85s.44.87.78,1.12c.34.25.75.37,1.22.37s.9-.12,1.23-.37c.34-.25.59-.62.78-1.12.18-.5.27-1.12.27-1.85s-.09-1.4-.27-1.9c-.18-.5-.44-.88-.78-1.13s-.75-.38-1.23-.38-.88.13-1.22.38c-.34.25-.6.63-.78,1.13-.18.5-.27,1.14-.27,1.9Z" style="fill:#faecd8; stroke-width:0px;"/><path d="m41.23,91.51c0,.55-.12,1.04-.36,1.46s-.57.76-.99.99c-.42.24-.91.36-1.46.36s-1.02-.12-1.45-.36c-.42-.24-.76-.57-.99-.99-.24-.42-.36-.91-.36-1.46s.12-1.04.36-1.46c.24-.42.57-.76.99-.99.43-.24.91-.36,1.45-.36s1.04.12,1.46.36c.42.24.75.57.99.99.24.42.36.91.36,1.46Zm5.94-2.59l-7.87,10.33h-2.12l7.87-10.33h2.11Zm-7.62,2.59c0-.35-.1-.64-.31-.86s-.48-.33-.81-.33-.61.11-.81.33c-.21.22-.31.51-.31.86s.1.63.31.85c.21.22.48.34.81.34s.61-.11.81-.34c.21-.22.31-.51.31-.85Zm9.2,5.11c0,.55-.12,1.04-.36,1.46-.24.42-.57.76-.99.99-.42.24-.91.36-1.46.36s-1.02-.12-1.45-.36c-.42-.24-.76-.57-.99-.99-.24-.42-.36-.91-.36-1.46s.12-1.04.36-1.46c.24-.42.57-.76.99-.99.42-.24.91-.36,1.45-.36s1.04.12,1.46.36c.42.24.75.57.99.99.24.42.36.91.36,1.46Zm-1.68,0c0-.35-.1-.64-.31-.86-.21-.22-.48-.33-.81-.33s-.61.11-.81.33c-.21.22-.31.51-.31.86s.1.63.31.85c.21.22.48.34.81.34s.61-.11.81-.34c.21-.22.31-.51.31-.85Z" style="fill:#faecd8; stroke-width:0px;"/><path d="m115.57,99.25h-2.24v-10.36h2.24l5.07,7.64h-.7v-7.64h2.24v10.36h-2.24l-5.07-7.63h.7v7.63Z" style="fill:#faecd8; stroke-width:0px;"/><path d="m123.69,95.74c0-.74.17-1.38.5-1.94.33-.56.79-.99,1.37-1.29s1.25-.46,2-.46,1.41.15,1.99.46c.58.31,1.03.74,1.36,1.29.33.56.5,1.2.5,1.94s-.17,1.38-.5,1.93c-.33.55-.79.98-1.36,1.29-.58.31-1.24.46-1.99.46s-1.41-.15-2-.46-1.04-.74-1.37-1.29-.5-1.19-.5-1.93Zm2.17-.01c0,.35.07.67.22.93.15.27.34.47.6.62s.55.22.88.22.63-.07.88-.22.45-.35.59-.62c.14-.27.21-.58.21-.93s-.07-.66-.21-.92c-.14-.26-.34-.46-.59-.61-.25-.14-.55-.22-.88-.22s-.63.07-.88.22c-.25.15-.45.35-.6.61-.14.26-.22.57-.22.92Z" style="fill:#faecd8; stroke-width:0px;"/><path d="m141.1,99.42c-1.04,0-1.93-.22-2.69-.65-.76-.43-1.34-1.05-1.75-1.85-.41-.8-.62-1.74-.62-2.83s.21-2.03.64-2.83c.43-.8,1.03-1.43,1.81-1.87.77-.44,1.67-.67,2.7-.67.87,0,1.64.16,2.32.47.68.31,1.23.75,1.66,1.32.43.57.7,1.24.8,2.02h-2.39c-.15-.52-.44-.92-.86-1.2-.42-.28-.95-.42-1.58-.42-.56,0-1.04.13-1.45.38-.41.25-.72.61-.93,1.08s-.32,1.04-.32,1.7.11,1.2.33,1.68c.22.48.53.84.94,1.1.41.26.88.38,1.43.38.63,0,1.17-.15,1.62-.44s.74-.7.88-1.21h2.35c-.12.77-.4,1.44-.85,2.02s-1.01,1.03-1.7,1.34c-.69.32-1.47.48-2.34.48Z" style="fill:#faecd8; stroke-width:0px;"/><path d="m149.32,99.25h-2.16v-10.56h2.17v4.28c.21-.3.51-.53.89-.7s.8-.25,1.25-.25c.83,0,1.48.25,1.94.76s.69,1.22.69,2.13v4.33h-2.16v-3.81c0-.3-.05-.56-.15-.77-.1-.21-.25-.38-.43-.5-.18-.12-.4-.18-.65-.18-.28,0-.53.06-.74.18s-.37.28-.49.5c-.12.21-.18.47-.18.76v3.84Z" style="fill:#faecd8; stroke-width:0px;"/><path d="m157.76,99.44c-.74,0-1.32-.2-1.76-.61-.43-.41-.65-.95-.65-1.63,0-.64.22-1.16.67-1.54.44-.38,1.08-.61,1.92-.67l1.96-.15v-.11c0-.23-.05-.43-.14-.58-.09-.15-.23-.27-.4-.35-.17-.08-.39-.12-.65-.12-.46,0-.8.08-1.04.25s-.36.41-.36.73h-1.79c0-.53.14-.99.41-1.39.27-.39.66-.69,1.16-.91.5-.21,1.08-.32,1.74-.32s1.26.12,1.73.36.83.6,1.08,1.06.37,1.04.37,1.71v4.09h-1.9l-.14-.92c-.11.32-.38.58-.79.79-.42.21-.88.31-1.41.31Zm.76-1.6c.41,0,.75-.1,1.01-.3.26-.2.39-.5.39-.9v-.38l-1.09.1c-.47.04-.8.11-.99.23s-.29.29-.29.51c0,.25.08.44.24.56.16.12.4.18.73.18Z" style="fill:#faecd8; stroke-width:0px;"/><path d="m165.7,99.25h-2.16v-7h2.03l.14.73c.21-.3.51-.53.89-.7s.79-.25,1.25-.25c.83,0,1.48.25,1.94.76s.69,1.22.69,2.13v4.33h-2.16v-3.81c0-.44-.11-.79-.34-1.06-.22-.27-.52-.4-.9-.4-.43,0-.77.13-1.02.39s-.38.6-.38,1.04v3.84Z" style="fill:#faecd8; stroke-width:0px;"/><path d="m171.68,95.63c0-.71.14-1.33.43-1.88.28-.54.68-.97,1.19-1.27s1.09-.46,1.74-.46c.55,0,1.02.11,1.42.34.4.22.67.52.82.88l-.21.14.17-1.12h2.03v6.55c0,.83-.15,1.55-.46,2.15-.31.6-.75,1.06-1.32,1.39-.57.32-1.26.48-2.06.48-1.07,0-1.95-.29-2.62-.86-.67-.57-1.06-1.36-1.16-2.35h2.18c.02.39.17.7.45.92s.66.33,1.13.33c.52,0,.94-.14,1.24-.43.3-.29.46-.68.46-1.18v-1.48l.24.18c-.15.36-.44.66-.87.88-.43.22-.92.34-1.48.34-.65,0-1.23-.15-1.73-.45-.5-.3-.89-.71-1.17-1.25-.28-.53-.42-1.15-.42-1.85Zm2.17-.06c0,.34.07.63.21.89.14.26.33.46.57.61.24.15.52.22.84.22s.61-.07.86-.22c.25-.15.44-.35.57-.6.13-.26.2-.56.2-.9s-.07-.64-.2-.89c-.14-.25-.33-.44-.57-.58-.25-.14-.54-.21-.88-.21-.32,0-.6.07-.84.21-.24.14-.43.34-.57.59-.13.25-.2.55-.2.88Z" style="fill:#faecd8; stroke-width:0px;"/><path d="m184.14,99.44c-.7,0-1.32-.16-1.87-.48-.55-.32-.98-.75-1.29-1.31-.31-.56-.47-1.19-.47-1.91s.15-1.37.46-1.92c.3-.56.73-.99,1.27-1.31s1.16-.48,1.86-.48c.74,0,1.37.15,1.9.46.53.3.94.73,1.23,1.29s.43,1.22.43,1.98v.55l-6.02.03.03-1.33h3.85c0-.37-.13-.67-.38-.89s-.6-.33-1.04-.33c-.36,0-.66.07-.89.21-.23.14-.4.36-.51.65-.11.29-.17.67-.17,1.13,0,.65.13,1.14.4,1.45.27.31.68.47,1.24.47.41,0,.75-.07,1.02-.21.27-.14.44-.34.52-.59h1.97c-.12.77-.5,1.39-1.15,1.85-.64.46-1.45.69-2.41.69Z" style="fill:#faecd8; stroke-width:0px;"/><rect x="10.19" y="25.41" width="281.06" height="54.85" transform="translate(301.44 105.67) rotate(180)" style="fill:url(#linear-gradient); stroke:#faecd8; stroke-miterlimit:10;"/></svg>