<?xml version="1.0" encoding="UTF-8"?><svg id="Layer_1" xmlns="http://www.w3.org/2000/svg" viewBox="0 0 300.39 95.58"><path d="m2.83,76.2H.48v-2.03h4.52v10.36h-2.17v-8.33Z" style="fill:#faecd8; stroke-width:0px;"/><path d="m6.62,79.38c0-1.07.19-2.01.57-2.82.38-.81.91-1.44,1.59-1.9.68-.46,1.47-.69,2.37-.69s1.7.23,2.37.69c.68.46,1.2,1.09,1.58,1.9s.57,1.75.57,2.82-.18,2-.54,2.8-.88,1.43-1.55,1.87-1.48.67-2.44.67-1.75-.22-2.43-.67c-.68-.44-1.19-1.07-1.55-1.87s-.54-1.74-.54-2.8Zm2.24,0c0,.74.09,1.36.27,1.85.18.5.44.87.78,1.12s.75.37,1.23.37.9-.12,1.23-.37c.34-.25.6-.62.78-1.12.18-.5.27-1.12.27-1.85s-.09-1.4-.27-1.9c-.18-.5-.44-.88-.78-1.13-.34-.25-.75-.38-1.23-.38s-.88.13-1.23.38-.6.63-.78,1.13-.27,1.14-.27,1.9Z" style="fill:#faecd8; stroke-width:0px;"/><path d="m16.67,79.38c0-1.07.19-2.01.57-2.82.38-.81.91-1.44,1.59-1.9.68-.46,1.47-.69,2.37-.69s1.7.23,2.37.69c.68.46,1.2,1.09,1.58,1.9s.57,1.75.57,2.82-.18,2-.54,2.8-.88,1.43-1.55,1.87-1.48.67-2.44.67-1.75-.22-2.43-.67c-.68-.44-1.19-1.07-1.55-1.87s-.54-1.74-.54-2.8Zm2.24,0c0,.74.09,1.36.27,1.85.18.5.44.87.78,1.12s.75.37,1.23.37.9-.12,1.23-.37c.34-.25.6-.62.78-1.12.18-.5.27-1.12.27-1.85s-.09-1.4-.27-1.9c-.18-.5-.44-.88-.78-1.13-.34-.25-.75-.38-1.23-.38s-.88.13-1.23.38-.6.63-.78,1.13-.27,1.14-.27,1.9Z" style="fill:#faecd8; stroke-width:0px;"/><path d="m33.21,84.53h-2.2v-10.36h2.2l3.08,7.73,3.09-7.73h2.23v10.36h-2.2v-3.56c0-.36,0-.67.01-.91,0-.24.02-.46.03-.64.01-.18.04-.37.06-.57l-2.2,5.67h-2.07l-2.18-5.67c.06.38.1.8.12,1.25.01.45.02.96.02,1.53v2.9Z" style="fill:#faecd8; stroke-width:0px;"/><path d="m44.56,76.44c-.35,0-.64-.12-.88-.36-.24-.24-.36-.53-.36-.88s.12-.63.36-.87.53-.35.88-.35.62.12.86.35c.24.23.36.52.36.87s-.12.64-.36.88c-.24.24-.52.36-.86.36Zm-1.06,8.09v-7h2.16v7h-2.16Z" style="fill:#faecd8; stroke-width:0px;"/><path d="m49.43,84.53h-2.16v-10.56h2.16v10.56Z" style="fill:#faecd8; stroke-width:0px;"/><path d="m53.21,84.53h-2.16v-10.56h2.16v10.56Z" style="fill:#faecd8; stroke-width:0px;"/><path d="m55.9,76.44c-.35,0-.64-.12-.88-.36-.24-.24-.36-.53-.36-.88s.12-.63.36-.87.53-.35.88-.35.62.12.86.35c.24.23.36.52.36.87s-.12.64-.36.88c-.24.24-.52.36-.86.36Zm-1.06,8.09v-7h2.16v7h-2.16Z" style="fill:#faecd8; stroke-width:0px;"/><path d="m58.24,81.02c0-.74.17-1.38.5-1.94.33-.55.79-.99,1.37-1.29.58-.31,1.25-.46,1.99-.46s1.41.15,1.99.46c.58.31,1.03.74,1.36,1.29.33.56.5,1.2.5,1.94s-.17,1.38-.5,1.93c-.33.55-.79.98-1.36,1.29-.58.31-1.24.46-1.99.46s-1.41-.15-1.99-.46c-.58-.31-1.04-.74-1.37-1.29-.33-.55-.5-1.19-.5-1.93Zm2.17-.01c0,.35.07.67.22.93.15.27.34.47.6.62s.55.22.88.22.63-.07.88-.22.45-.35.59-.62.21-.58.21-.93-.07-.66-.21-.92c-.14-.26-.34-.46-.59-.61s-.55-.22-.88-.22-.63.07-.88.22-.45.35-.6.61c-.14.26-.22.57-.22.92Z" style="fill:#faecd8; stroke-width:0px;"/><path d="m69.35,84.53h-2.16v-7h2.03l.14.73c.21-.3.51-.53.89-.7s.8-.25,1.25-.25c.83,0,1.48.25,1.94.76s.69,1.22.69,2.13v4.33h-2.16v-3.81c0-.44-.11-.79-.34-1.06-.22-.27-.52-.4-.9-.4-.43,0-.77.13-1.02.38s-.38.6-.38,1.04v3.84Z" style="fill:#faecd8; stroke-width:0px;"/><path d="m81.93,74.17v10.36h-2.27v-10.36h2.27Z" style="fill:#faecd8; stroke-width:0px;"/><path d="m85.85,84.53h-2.03v-10.56h2.16v4.37c.21-.32.53-.57.96-.76.42-.19.89-.29,1.39-.29.65,0,1.22.16,1.7.48.48.32.85.76,1.11,1.33s.39,1.24.39,2c0,.72-.14,1.35-.43,1.9-.29.55-.68.97-1.19,1.27-.51.3-1.09.45-1.76.45-.49,0-.93-.1-1.32-.3-.4-.2-.69-.46-.88-.78l-.11.9Zm.14-3.54c0,.35.07.65.22.92.14.27.34.47.6.62s.55.22.89.22.64-.07.89-.22c.25-.15.44-.35.57-.62.14-.26.2-.56.2-.91s-.07-.65-.2-.91c-.14-.26-.33-.47-.57-.62-.25-.15-.54-.22-.89-.22s-.63.07-.89.22c-.26.15-.46.35-.6.61-.15.26-.22.57-.22.92Z" style="fill:#faecd8; stroke-width:0px;"/><path d="m92.27,82.32h2.04c.02.24.12.43.29.57s.43.21.76.21.58-.06.74-.17.24-.26.24-.43c0-.1-.04-.21-.12-.31-.08-.1-.25-.18-.51-.24l-1.29-.28c-.64-.14-1.12-.37-1.44-.68-.32-.31-.48-.78-.48-1.39,0-.49.13-.9.39-1.24.26-.34.6-.6,1.04-.78.44-.18.94-.27,1.5-.27s1.02.1,1.44.29c.42.2.74.47.97.83s.35.77.35,1.25h-2.04c0-.24-.07-.44-.21-.58s-.34-.22-.6-.22c-.24,0-.44.06-.58.17-.15.12-.22.27-.22.46,0,.3.25.5.76.62l1.3.28c.58.12,1.02.33,1.32.62s.46.72.46,1.28c0,.5-.13.92-.39,1.29-.26.36-.63.64-1.09.83-.47.19-1,.29-1.61.29-.92,0-1.66-.22-2.2-.67-.54-.44-.81-1.02-.81-1.73Z" style="fill:#faecd8; stroke-width:0px;"/><circle cx="43.25" cy="30.63" r="27.82" style="fill:rgba(205,41,246,.25); stroke:#cd29f6; stroke-miterlimit:10; stroke-width:2px;"/><path d="m118.67,76.2h-2.35v-2.03h4.52v10.36h-2.17v-8.33Z" style="fill:#faecd8; stroke-width:0px;"/><path d="m122.46,79.38c0-1.07.19-2.01.57-2.82.38-.81.91-1.44,1.59-1.9.68-.46,1.47-.69,2.37-.69s1.7.23,2.37.69c.68.46,1.2,1.09,1.58,1.9s.57,1.75.57,2.82-.18,2-.54,2.8-.88,1.43-1.55,1.87-1.48.67-2.44.67-1.75-.22-2.43-.67c-.68-.44-1.19-1.07-1.55-1.87s-.54-1.74-.54-2.8Zm2.24,0c0,.74.09,1.36.27,1.85.18.5.44.87.78,1.12s.75.37,1.23.37.9-.12,1.23-.37c.34-.25.6-.62.78-1.12.18-.5.27-1.12.27-1.85s-.09-1.4-.27-1.9c-.18-.5-.44-.88-.78-1.13-.34-.25-.75-.38-1.23-.38s-.88.13-1.23.38-.6.63-.78,1.13-.27,1.14-.27,1.9Z" style="fill:#faecd8; stroke-width:0px;"/><path d="m139,84.53h-2.2v-10.36h2.2l3.08,7.73,3.09-7.73h2.23v10.36h-2.2v-3.56c0-.36,0-.67.01-.91,0-.24.02-.46.03-.64.01-.18.04-.37.06-.57l-2.2,5.67h-2.07l-2.18-5.67c.06.38.1.8.12,1.25.01.45.02.96.02,1.53v2.9Z" style="fill:#faecd8; stroke-width:0px;"/><path d="m150.35,76.44c-.35,0-.64-.12-.88-.36-.24-.24-.36-.53-.36-.88s.12-.63.36-.87.53-.35.88-.35.62.12.86.35c.24.23.36.52.36.87s-.12.64-.36.88c-.24.24-.52.36-.86.36Zm-1.06,8.09v-7h2.16v7h-2.16Z" style="fill:#faecd8; stroke-width:0px;"/><path d="m155.22,84.53h-2.16v-10.56h2.16v10.56Z" style="fill:#faecd8; stroke-width:0px;"/><path d="m159,84.53h-2.16v-10.56h2.16v10.56Z" style="fill:#faecd8; stroke-width:0px;"/><path d="m161.69,76.44c-.35,0-.64-.12-.88-.36-.24-.24-.36-.53-.36-.88s.12-.63.36-.87.53-.35.88-.35.62.12.86.35c.24.23.36.52.36.87s-.12.64-.36.88c-.24.24-.52.36-.86.36Zm-1.06,8.09v-7h2.16v7h-2.16Z" style="fill:#faecd8; stroke-width:0px;"/><path d="m164.03,81.02c0-.74.17-1.38.5-1.94.33-.55.79-.99,1.37-1.29.58-.31,1.25-.46,1.99-.46s1.41.15,1.99.46c.58.31,1.03.74,1.36,1.29.33.56.5,1.2.5,1.94s-.17,1.38-.5,1.93c-.33.55-.79.98-1.36,1.29-.58.31-1.24.46-1.99.46s-1.41-.15-1.99-.46c-.58-.31-1.04-.74-1.37-1.29-.33-.55-.5-1.19-.5-1.93Zm2.17-.01c0,.35.07.67.22.93.15.27.34.47.6.62s.55.22.88.22.63-.07.88-.22.45-.35.59-.62.21-.58.21-.93-.07-.66-.21-.92c-.14-.26-.34-.46-.59-.61s-.55-.22-.88-.22-.63.07-.88.22-.45.35-.6.61c-.14.26-.22.57-.22.92Z" style="fill:#faecd8; stroke-width:0px;"/><path d="m175.14,84.53h-2.16v-7h2.03l.14.73c.21-.3.51-.53.89-.7s.8-.25,1.25-.25c.83,0,1.48.25,1.94.76s.69,1.22.69,2.13v4.33h-2.16v-3.81c0-.44-.11-.79-.34-1.06-.22-.27-.52-.4-.9-.4-.43,0-.77.13-1.02.38s-.38.6-.38,1.04v3.84Z" style="fill:#faecd8; stroke-width:0px;"/><path d="m187.72,74.17v10.36h-2.27v-10.36h2.27Z" style="fill:#faecd8; stroke-width:0px;"/><path d="m191.64,84.53h-2.03v-10.56h2.16v4.37c.21-.32.53-.57.96-.76.42-.19.89-.29,1.39-.29.65,0,1.22.16,1.7.48.48.32.85.76,1.11,1.33s.39,1.24.39,2c0,.72-.14,1.35-.43,1.9-.29.55-.68.97-1.19,1.27-.51.3-1.09.45-1.76.45-.49,0-.93-.1-1.32-.3-.4-.2-.69-.46-.88-.78l-.11.9Zm.14-3.54c0,.35.07.65.22.92.14.27.34.47.6.62s.55.22.89.22.64-.07.89-.22c.25-.15.44-.35.57-.62.14-.26.2-.56.2-.91s-.07-.65-.2-.91c-.14-.26-.33-.47-.57-.62-.25-.15-.54-.22-.89-.22s-.63.07-.89.22c-.26.15-.46.35-.6.61-.15.26-.22.57-.22.92Z" style="fill:#faecd8; stroke-width:0px;"/><path d="m198.06,82.32h2.04c.02.24.12.43.29.57s.43.21.76.21.58-.06.74-.17.24-.26.24-.43c0-.1-.04-.21-.12-.31-.08-.1-.25-.18-.51-.24l-1.29-.28c-.64-.14-1.12-.37-1.44-.68-.32-.31-.48-.78-.48-1.39,0-.49.13-.9.39-1.24.26-.34.6-.6,1.04-.78.44-.18.94-.27,1.5-.27s1.02.1,1.44.29c.42.2.74.47.97.83s.35.77.35,1.25h-2.04c0-.24-.07-.44-.21-.58s-.34-.22-.6-.22c-.24,0-.44.06-.58.17-.15.12-.22.27-.22.46,0,.3.25.5.76.62l1.3.28c.58.12,1.02.33,1.32.62s.46.72.46,1.28c0,.5-.13.92-.39,1.29-.26.36-.63.64-1.09.83-.47.19-1,.29-1.61.29-.92,0-1.66-.22-2.2-.67-.54-.44-.81-1.02-.81-1.73Z" style="fill:#faecd8; stroke-width:0px;"/><circle cx="160.03" cy="42.04" r="16.88" style="fill:rgba(205,41,246,.25); stroke:#cd29f6; stroke-miterlimit:10; stroke-width:2px;"/><path d="m224.05,76.2h-2.35v-2.03h4.52v10.36h-2.17v-8.33Z" style="fill:#faecd8; stroke-width:0px;"/><path d="m234.33,84.53h-2.2v-10.36h2.2l3.08,7.73,3.09-7.73h2.23v10.36h-2.2v-3.56c0-.36,0-.67.01-.91,0-.24.02-.46.03-.64.01-.18.04-.37.06-.57l-2.2,5.67h-2.07l-2.18-5.67c.06.38.1.8.12,1.25.01.45.02.96.02,1.53v2.9Z" style="fill:#faecd8; stroke-width:0px;"/><path d="m245.68,76.44c-.35,0-.64-.12-.88-.36-.24-.24-.36-.53-.36-.88s.12-.63.36-.87.53-.35.88-.35.62.12.86.35c.24.23.36.52.36.87s-.12.64-.36.88c-.24.24-.52.36-.86.36Zm-1.06,8.09v-7h2.16v7h-2.16Z" style="fill:#faecd8; stroke-width:0px;"/><path d="m250.55,84.53h-2.16v-10.56h2.16v10.56Z" style="fill:#faecd8; stroke-width:0px;"/><path d="m254.33,84.53h-2.16v-10.56h2.16v10.56Z" style="fill:#faecd8; stroke-width:0px;"/><path d="m257.02,76.44c-.35,0-.64-.12-.88-.36-.24-.24-.36-.53-.36-.88s.12-.63.36-.87.53-.35.88-.35.62.12.86.35c.24.23.36.52.36.87s-.12.64-.36.88c-.24.24-.52.36-.86.36Zm-1.06,8.09v-7h2.16v7h-2.16Z" style="fill:#faecd8; stroke-width:0px;"/><path d="m259.36,81.02c0-.74.17-1.38.5-1.94.33-.55.79-.99,1.37-1.29.58-.31,1.25-.46,1.99-.46s1.41.15,1.99.46c.58.31,1.03.74,1.36,1.29.33.56.5,1.2.5,1.94s-.17,1.38-.5,1.93c-.33.55-.79.98-1.36,1.29-.58.31-1.24.46-1.99.46s-1.41-.15-1.99-.46c-.58-.31-1.04-.74-1.37-1.29-.33-.55-.5-1.19-.5-1.93Zm2.17-.01c0,.35.07.67.22.93.15.27.34.47.6.62s.55.22.88.22.63-.07.88-.22.45-.35.59-.62.21-.58.21-.93-.07-.66-.21-.92c-.14-.26-.34-.46-.59-.61s-.55-.22-.88-.22-.63.07-.88.22-.45.35-.6.61c-.14.26-.22.57-.22.92Z" style="fill:#faecd8; stroke-width:0px;"/><path d="m270.47,84.53h-2.16v-7h2.03l.14.73c.21-.3.51-.53.89-.7s.8-.25,1.25-.25c.83,0,1.48.25,1.94.76s.69,1.22.69,2.13v4.33h-2.16v-3.81c0-.44-.11-.79-.34-1.06-.22-.27-.52-.4-.9-.4-.43,0-.77.13-1.02.38s-.38.6-.38,1.04v3.84Z" style="fill:#faecd8; stroke-width:0px;"/><path d="m283.05,74.17v10.36h-2.27v-10.36h2.27Z" style="fill:#faecd8; stroke-width:0px;"/><path d="m286.96,84.53h-2.03v-10.56h2.16v4.37c.21-.32.53-.57.96-.76.42-.19.89-.29,1.39-.29.65,0,1.22.16,1.7.48.48.32.85.76,1.11,1.33s.39,1.24.39,2c0,.72-.14,1.35-.43,1.9-.29.55-.68.97-1.19,1.27-.51.3-1.09.45-1.76.45-.49,0-.93-.1-1.32-.3-.4-.2-.69-.46-.88-.78l-.11.9Zm.14-3.54c0,.35.07.65.22.92.14.27.34.47.6.62s.55.22.89.22.64-.07.89-.22c.25-.15.44-.35.57-.62.14-.26.2-.56.2-.91s-.07-.65-.2-.91c-.14-.26-.33-.47-.57-.62-.25-.15-.54-.22-.89-.22s-.63.07-.89.22c-.26.15-.46.35-.6.61-.15.26-.22.57-.22.92Z" style="fill:#faecd8; stroke-width:0px;"/><path d="m293.39,82.32h2.04c.02.24.12.43.29.57s.43.21.76.21.58-.06.74-.17.24-.26.24-.43c0-.1-.04-.21-.12-.31-.08-.1-.25-.18-.51-.24l-1.29-.28c-.64-.14-1.12-.37-1.44-.68-.32-.31-.48-.78-.48-1.39,0-.49.13-.9.39-1.24.26-.34.6-.6,1.04-.78.44-.18.94-.27,1.5-.27s1.02.1,1.44.29c.42.2.74.47.97.83s.35.77.35,1.25h-2.04c0-.24-.07-.44-.21-.58s-.34-.22-.6-.22c-.24,0-.44.06-.58.17-.15.12-.22.27-.22.46,0,.3.25.5.76.62l1.3.28c.58.12,1.02.33,1.32.62s.46.72.46,1.28c0,.5-.13.92-.39,1.29-.26.36-.63.64-1.09.83-.47.19-1,.29-1.61.29-.92,0-1.66-.22-2.2-.67-.54-.44-.81-1.02-.81-1.73Z" style="fill:#faecd8; stroke-width:0px;"/><circle cx="263.26" cy="51.51" r="9.32" style="fill:rgba(205,41,246,.25); stroke:#cd29f6; stroke-miterlimit:10; stroke-width:2px;"/></svg>