<?xml version="1.0" encoding="UTF-8"?><svg id="Layer_1" xmlns="http://www.w3.org/2000/svg" viewBox="0 0 300.39 75.54"><path d="m50.64,24.85c-1.04,0-1.93-.22-2.69-.65-.76-.43-1.34-1.05-1.75-1.85-.41-.8-.62-1.74-.62-2.83s.21-2.03.64-2.83c.43-.8,1.03-1.43,1.81-1.87.77-.44,1.67-.67,2.7-.67.87,0,1.64.16,2.32.47.68.31,1.23.75,1.66,1.32.43.57.7,1.24.8,2.02h-2.39c-.15-.52-.44-.92-.86-1.2-.42-.28-.95-.42-1.58-.42-.56,0-1.04.13-1.45.38-.41.25-.72.61-.93,1.08s-.32,1.04-.32,1.7.11,1.2.33,1.68c.22.48.53.84.94,1.1.41.26.88.38,1.43.38.63,0,1.17-.15,1.62-.44s.74-.7.88-1.21h2.35c-.12.77-.4,1.44-.85,2.02s-1.01,1.03-1.7,1.34c-.69.32-1.47.48-2.34.48Z" style="fill:#faecd8; stroke-width:0px;"/><path d="m58.86,24.68h-2.16v-10.56h2.17v4.28c.21-.3.51-.53.89-.7s.8-.25,1.25-.25c.83,0,1.48.25,1.94.76s.69,1.22.69,2.13v4.33h-2.16v-3.81c0-.3-.05-.56-.15-.77-.1-.21-.25-.38-.43-.5-.18-.12-.4-.18-.65-.18-.28,0-.53.06-.74.18s-.37.28-.49.5c-.12.21-.18.47-.18.76v3.84Z" style="fill:#faecd8; stroke-width:0px;"/><path d="m66.26,16.59c-.35,0-.64-.12-.88-.36-.24-.24-.36-.53-.36-.88s.12-.63.36-.87c.24-.23.53-.35.88-.35s.62.12.86.35c.24.23.36.52.36.87s-.12.64-.36.88c-.24.24-.52.36-.86.36Zm-1.06,8.09v-7h2.16v7h-2.16Z" style="fill:#faecd8; stroke-width:0px;"/><path d="m71.13,24.68h-2.16v-10.56h2.16v10.56Z" style="fill:#faecd8; stroke-width:0px;"/><path d="m75.69,24.86c-.67,0-1.26-.15-1.75-.45-.5-.3-.88-.72-1.16-1.27-.28-.55-.41-1.19-.41-1.92s.14-1.4.42-1.97c.28-.56.68-1.01,1.2-1.32s1.13-.48,1.84-.48c.44,0,.85.08,1.23.24.38.16.67.37.88.63v-4.2h2.16v10.56h-2.03l-.11-.9c-.19.32-.48.58-.89.78-.41.2-.86.3-1.37.3Zm.52-1.97c.34,0,.63-.07.89-.22.26-.15.46-.35.6-.62s.22-.57.22-.92-.07-.66-.22-.92-.35-.46-.6-.61c-.26-.14-.55-.22-.89-.22s-.63.07-.88.22-.45.35-.58.62c-.14.26-.2.56-.2.91s.07.65.2.91.33.47.58.62c.25.15.55.22.88.22Z" style="fill:#faecd8; stroke-width:0px;"/><path d="m87.95,14.32v10.36h-2.27v-10.36h2.27Zm3.64,6.31h-5.75v-2.04h5.75v2.04Zm.69-4.21h-6.38v-2.1h6.38v2.1Z" style="fill:#faecd8; stroke-width:0px;"/><path d="m95.12,24.86c-.74,0-1.32-.2-1.76-.61-.43-.41-.65-.95-.65-1.63,0-.64.22-1.16.67-1.54.44-.38,1.08-.61,1.92-.67l1.96-.15v-.11c0-.23-.05-.43-.14-.58-.09-.15-.23-.27-.4-.35-.17-.08-.39-.12-.65-.12-.46,0-.8.08-1.04.25s-.36.41-.36.73h-1.79c0-.53.14-.99.41-1.39.27-.39.66-.69,1.16-.91.5-.21,1.08-.32,1.74-.32s1.26.12,1.73.36.83.6,1.08,1.06.37,1.04.37,1.71v4.09h-1.9l-.14-.92c-.11.32-.38.58-.79.79-.42.21-.88.31-1.41.31Zm.76-1.6c.41,0,.75-.1,1.01-.3.26-.2.39-.5.39-.9v-.38l-1.09.1c-.47.04-.8.11-.99.23s-.29.29-.29.51c0,.25.08.44.24.56.16.12.4.18.73.18Z" style="fill:#faecd8; stroke-width:0px;"/><path d="m100.53,21.15c0-.72.15-1.36.46-1.91.31-.56.73-.99,1.27-1.31s1.16-.48,1.86-.48c1.04,0,1.88.27,2.52.8.64.53,1,1.26,1.06,2.17h-2.17c-.08-.35-.22-.62-.44-.78-.22-.17-.52-.25-.89-.25-.3,0-.56.07-.79.22-.23.15-.4.35-.53.61s-.18.57-.18.94.06.69.17.96c.12.27.28.47.5.61.22.14.48.21.79.21.38,0,.69-.09.92-.26.23-.17.38-.43.44-.78h2.17c-.05.59-.23,1.1-.54,1.55-.31.44-.73.79-1.24,1.04-.51.25-1.1.38-1.75.38-.74,0-1.38-.15-1.92-.46-.55-.31-.97-.74-1.27-1.3-.3-.56-.45-1.21-.45-1.95Z" style="fill:#faecd8; stroke-width:0px;"/><path d="m109.93,16.59c-.34,0-.64-.12-.88-.36-.24-.24-.36-.53-.36-.88s.12-.63.36-.87c.24-.23.53-.35.88-.35s.62.12.86.35.36.52.36.87-.12.64-.36.88c-.24.24-.53.36-.86.36Zm-1.06,8.09v-7h2.16v7h-2.16Z" style="fill:#faecd8; stroke-width:0px;"/><path d="m114.81,24.68h-2.16v-10.56h2.16v10.56Z" style="fill:#faecd8; stroke-width:0px;"/><path d="m117.49,16.59c-.34,0-.64-.12-.88-.36-.24-.24-.36-.53-.36-.88s.12-.63.36-.87c.24-.23.53-.35.88-.35s.62.12.86.35.36.52.36.87-.12.64-.36.88c-.24.24-.53.36-.86.36Zm-1.06,8.09v-7h2.16v7h-2.16Z" style="fill:#faecd8; stroke-width:0px;"/><path d="m119.55,17.68h4.82v1.79h-4.82v-1.79Zm3.49,7h-2.16v-9.17h2.16v9.17Z" style="fill:#faecd8; stroke-width:0px;"/><path d="m126.9,17.68l2.06,6.05-1.05,2.49-3.32-8.54h2.31Zm-2.13,10.36v-1.81h1.19c.24,0,.44-.03.6-.09.16-.06.29-.16.41-.3.11-.14.21-.34.31-.59l2.84-7.57h2.24l-3.56,8.53c-.29.71-.64,1.23-1.06,1.55-.42.32-.93.48-1.55.48-.26,0-.51-.02-.75-.05s-.46-.08-.68-.15Z" style="fill:#faecd8; stroke-width:0px;"/><path d="m47.58,62.07h-2.37l3.7-10.36h2.21l3.68,10.36h-2.41l-.73-2.18h-3.35l-.74,2.18Zm2.14-6.3l-.74,2.21h2.04l-.74-2.21c-.06-.18-.11-.36-.17-.55-.06-.19-.09-.34-.11-.46-.02.12-.05.27-.11.46-.05.18-.11.37-.17.55Z" style="fill:#faecd8; stroke-width:0px;"/><path d="m57.9,62.07h-2.16v-7h2.02l.24,1.2-.22-.25c.14-.28.39-.55.76-.8s.83-.38,1.41-.38c.62,0,1.11.15,1.48.46.37.31.65.71.83,1.2h-.34c.11-.49.38-.9.81-1.2.43-.31.94-.46,1.54-.46.91,0,1.58.24,2.03.72.45.48.67,1.12.67,1.92v4.58h-2.16v-3.98c0-.44-.11-.77-.32-.98-.21-.21-.49-.32-.83-.32-.21,0-.4.04-.59.13-.19.09-.34.24-.46.46-.12.22-.18.53-.18.93v3.75h-2.16v-3.98c0-.44-.1-.76-.31-.97-.21-.21-.48-.31-.83-.31-.21,0-.4.04-.59.13-.19.09-.35.24-.47.46s-.18.52-.18.92v3.75Z" style="fill:#faecd8; stroke-width:0px;"/><path d="m68.13,58.56c0-.74.17-1.38.5-1.94.33-.56.79-.99,1.37-1.29.58-.31,1.25-.46,1.99-.46s1.41.15,1.99.46,1.03.74,1.37,1.29c.33.56.5,1.2.5,1.94s-.17,1.38-.5,1.93-.79.98-1.37,1.29-1.24.46-1.99.46-1.41-.15-1.99-.46c-.58-.31-1.04-.74-1.37-1.29-.33-.55-.5-1.19-.5-1.93Zm2.17-.01c0,.35.07.67.22.93.14.27.34.47.59.62s.55.22.88.22.63-.07.88-.22.45-.35.59-.62c.14-.27.21-.58.21-.93s-.07-.66-.21-.92c-.14-.26-.34-.46-.59-.61-.25-.14-.55-.22-.88-.22s-.63.07-.88.22c-.25.15-.45.35-.59.61-.14.26-.22.57-.22.92Z" style="fill:#faecd8; stroke-width:0px;"/><path d="m81.57,55.07h2.16v7h-2.03l-.14-.78c-.21.29-.52.52-.92.7-.4.18-.8.27-1.22.27-.79,0-1.42-.25-1.88-.75s-.69-1.18-.69-2.04v-4.4h2.16v3.61c0,.57.1.99.31,1.25.21.27.53.4.97.4.47,0,.8-.13,1-.39.2-.26.3-.67.3-1.24v-3.64Z" style="fill:#faecd8; stroke-width:0px;"/><path d="m87.51,62.07h-2.16v-7h2.03l.14.73c.21-.3.51-.53.89-.7s.8-.25,1.25-.25c.83,0,1.48.25,1.94.76s.69,1.22.69,2.13v4.33h-2.16v-3.81c0-.44-.11-.79-.34-1.06-.22-.27-.52-.4-.9-.4-.43,0-.77.13-1.02.39s-.38.6-.38,1.04v3.84Z" style="fill:#faecd8; stroke-width:0px;"/><path d="m93.18,55.07h4.82v1.79h-4.82v-1.79Zm3.49,7h-2.16v-9.17h2.16v9.17Z" style="fill:#faecd8; stroke-width:0px;"/><path d="m103.73,53.98c-.34,0-.64-.12-.88-.36-.24-.24-.36-.53-.36-.88s.12-.63.36-.87c.24-.23.53-.35.88-.35s.62.12.86.35.36.52.36.87-.12.64-.36.88c-.24.24-.53.36-.86.36Zm-1.06,8.09v-7h2.16v7h-2.16Z" style="fill:#faecd8; stroke-width:0px;"/><path d="m108.6,62.07h-2.16v-7h2.03l.14.73c.21-.3.51-.53.89-.7s.8-.25,1.25-.25c.83,0,1.48.25,1.94.76s.69,1.22.69,2.13v4.33h-2.16v-3.81c0-.44-.11-.79-.34-1.06-.22-.27-.52-.4-.9-.4-.43,0-.77.13-1.02.39s-.38.6-.38,1.04v3.84Z" style="fill:#faecd8; stroke-width:0px;"/><path d="m121.18,51.71v10.36h-2.27v-10.36h2.27Z" style="fill:#faecd8; stroke-width:0px;"/><path d="m125.1,62.07h-2.03v-10.56h2.16v4.37c.21-.32.53-.57.96-.76.42-.19.89-.29,1.39-.29.65,0,1.22.16,1.7.48.48.32.85.76,1.11,1.33.26.57.39,1.24.39,2,0,.72-.14,1.35-.43,1.9-.29.55-.68.97-1.19,1.27-.51.3-1.09.45-1.76.45-.49,0-.93-.1-1.32-.3-.4-.2-.69-.46-.88-.78l-.11.9Zm.14-3.54c0,.35.07.65.22.92.14.27.34.47.6.62.26.14.55.22.89.22s.64-.07.89-.22c.25-.15.44-.35.57-.62.14-.26.2-.56.2-.91s-.07-.65-.2-.91c-.13-.26-.33-.47-.57-.62-.25-.15-.54-.22-.89-.22s-.63.07-.89.22c-.26.15-.46.35-.6.61-.15.26-.22.57-.22.92Z" style="fill:#faecd8; stroke-width:0px;"/><path d="m131.52,59.86h2.04c.02.24.12.43.29.57.18.14.43.21.76.21s.58-.06.74-.17c.16-.11.24-.26.24-.43,0-.1-.04-.21-.12-.31s-.25-.18-.51-.24l-1.29-.28c-.64-.14-1.12-.37-1.44-.68-.32-.31-.48-.78-.48-1.39,0-.48.13-.9.38-1.24s.6-.6,1.04-.78c.44-.18.94-.27,1.5-.27s1.02.1,1.44.29c.42.2.74.47.97.83.23.35.35.77.35,1.25h-2.04c0-.24-.07-.44-.21-.58-.14-.14-.34-.22-.6-.22-.24,0-.44.06-.58.17-.15.12-.22.27-.22.46,0,.3.25.5.76.62l1.3.28c.58.12,1.02.33,1.32.62.3.29.46.72.46,1.28,0,.5-.13.92-.39,1.29-.26.36-.62.64-1.09.83s-1,.29-1.61.29c-.92,0-1.66-.22-2.2-.67-.54-.44-.81-1.02-.81-1.73Z" style="fill:#faecd8; stroke-width:0px;"/><path d="m34.1,57.66H4.56h29.55Z" style="fill:none; stroke:#cd29f6; stroke-miterlimit:10;"/><circle cx="19.33" cy="18.39" r="14.77" style="fill:rgba(255,32,86,.25); stroke:#ff2056; stroke-miterlimit:10;"/></svg>