<?xml version="1.0" encoding="UTF-8"?><svg id="Layer_1" xmlns="http://www.w3.org/2000/svg" viewBox="0 0 295.91 160.96"><rect x="1.08" y="104.3" width="79.13" height="36.5" style="fill:rgba(250,236,216,.25); stroke:#faecd8; stroke-miterlimit:10; stroke-width:2px;"/><path d="m177.37,7.84c0-.62.16-1.18.49-1.66.33-.48.78-.86,1.35-1.13.57-.27,1.23-.41,1.97-.41s1.39.13,1.93.39c.54.26.96.63,1.25,1.11s.44,1.04.44,1.69h-2.25c0-.36-.13-.65-.38-.86s-.59-.31-1.02-.31c-.46,0-.82.1-1.1.29-.28.2-.41.47-.41.81,0,.32.08.56.25.73s.43.29.8.36l1.55.32c.92.19,1.61.51,2.06.97.45.46.67,1.1.67,1.92,0,.66-.16,1.24-.49,1.74-.33.5-.79.88-1.38,1.15s-1.29.41-2.08.41-1.44-.13-2.01-.39c-.57-.26-1.02-.63-1.33-1.11-.31-.48-.47-1.04-.47-1.69h2.25c0,.37.14.66.41.87.27.21.66.31,1.16.31s.92-.1,1.22-.29c.3-.19.45-.45.45-.78,0-.29-.07-.51-.22-.67-.15-.16-.39-.27-.73-.34l-1.58-.32c-.92-.19-1.62-.54-2.09-1.06-.47-.52-.71-1.21-.71-2.06Z" style="fill:#0ef1ff; stroke-width:0px;"/><path d="m186.4,11.29v-6.47h2.27v6.31c0,.65.17,1.15.52,1.5s.84.52,1.47.52,1.14-.18,1.49-.53c.35-.35.52-.85.52-1.48v-6.31h2.27v6.47c0,.82-.17,1.54-.52,2.14-.35.61-.85,1.08-1.49,1.41-.64.34-1.4.5-2.27.5s-1.61-.17-2.25-.5c-.64-.33-1.13-.8-1.48-1.41-.35-.61-.53-1.33-.53-2.15Z" style="fill:#0ef1ff; stroke-width:0px;"/><path d="m199.3,15.19h-2.27V4.83h4c1.26,0,2.23.29,2.92.88s1.03,1.41,1.03,2.48c0,.67-.14,1.25-.43,1.72s-.72.86-1.29,1.16l1.82,4.12h-2.48l-1.55-3.63h-1.75v3.63Zm0-8.34v2.73h1.72c.49,0,.88-.12,1.16-.36.27-.24.41-.58.41-1.02s-.13-.77-.4-1c-.27-.23-.65-.34-1.15-.34h-1.74Z" style="fill:#0ef1ff; stroke-width:0px;"/><path d="m208.93,4.83v10.36h-2.27V4.83h2.27Zm3.64,6.31h-5.75v-2.04h5.75v2.04Zm.69-4.21h-6.38v-2.1h6.38v2.1Z" style="fill:#0ef1ff; stroke-width:0px;"/><path d="m215.59,15.19h-2.37l3.7-10.36h2.21l3.68,10.36h-2.41l-.73-2.18h-3.35l-.74,2.18Zm2.14-6.3l-.74,2.21h2.04l-.74-2.21c-.06-.18-.11-.36-.17-.55-.06-.19-.09-.34-.11-.46-.02.12-.05.27-.1.46s-.11.37-.18.55Z" style="fill:#0ef1ff; stroke-width:0px;"/><path d="m227.94,15.35c-1.04,0-1.93-.22-2.69-.65-.76-.43-1.34-1.05-1.75-1.85-.41-.8-.62-1.74-.62-2.83s.21-2.03.64-2.83c.43-.8,1.03-1.43,1.81-1.87.77-.44,1.68-.67,2.7-.67.87,0,1.64.16,2.32.47.68.31,1.23.75,1.66,1.32s.7,1.24.8,2.02h-2.39c-.15-.52-.44-.92-.86-1.2-.42-.28-.95-.42-1.57-.42-.56,0-1.04.13-1.45.38-.41.25-.72.61-.93,1.08-.21.47-.32,1.04-.32,1.7s.11,1.2.33,1.68.53.84.94,1.1c.41.26.88.38,1.44.38.63,0,1.17-.15,1.62-.44s.74-.7.88-1.21h2.35c-.12.77-.4,1.44-.85,2.02-.44.58-1.01,1.03-1.7,1.34-.69.32-1.47.48-2.34.48Z" style="fill:#0ef1ff; stroke-width:0px;"/><path d="m240.92,15.19h-6.58V4.83h6.58v2.1h-4.94l.63-.59v2.62h3.82v1.99h-3.82v2.73l-.63-.59h4.94v2.1Z" style="fill:#0ef1ff; stroke-width:0px;"/><path d="m248.73,15.19l-3.11-10.36h2.37l1.36,4.49c.09.31.18.63.27.97.08.34.17.77.25,1.28.08-.51.17-.94.25-1.27.08-.34.17-.66.27-.98l1.27-4.49h2.53l1.22,4.49c.08.32.17.65.25.99.08.35.17.77.27,1.26.1-.52.2-.95.28-1.28.08-.33.17-.65.27-.94l1.39-4.52h2.31l-3.16,10.36h-2.21l-1.89-6.8-1.95,6.8h-2.23Z" style="fill:#0ef1ff; stroke-width:0px;"/><path d="m261.68,15.19h-2.37l3.7-10.36h2.21l3.68,10.36h-2.41l-.73-2.18h-3.35l-.74,2.18Zm2.14-6.3l-.74,2.21h2.04l-.74-2.21c-.06-.18-.11-.36-.17-.55-.06-.19-.09-.34-.11-.46-.02.12-.05.27-.1.46s-.11.37-.18.55Z" style="fill:#0ef1ff; stroke-width:0px;"/><path d="m268.4,6.93v-2.1h8.15v2.1h-8.15Zm5.21-1.01v9.27h-2.27V5.92h2.27Z" style="fill:#0ef1ff; stroke-width:0px;"/><path d="m284.49,15.19h-6.58V4.83h6.58v2.1h-4.94l.63-.59v2.62h3.82v1.99h-3.82v2.73l-.63-.59h4.94v2.1Z" style="fill:#0ef1ff; stroke-width:0px;"/><path d="m288.62,15.19h-2.27V4.83h4c1.26,0,2.23.29,2.92.88s1.03,1.41,1.03,2.48c0,.67-.14,1.25-.43,1.72s-.72.86-1.29,1.16l1.82,4.12h-2.48l-1.55-3.63h-1.75v3.63Zm0-8.34v2.73h1.72c.49,0,.88-.12,1.16-.36.27-.24.41-.58.41-1.02s-.13-.77-.4-1c-.27-.23-.65-.34-1.15-.34h-1.74Z" style="fill:#0ef1ff; stroke-width:0px;"/><path d="m86.62,30.68c0-.62.16-1.18.49-1.66.33-.48.78-.86,1.35-1.13.57-.27,1.23-.41,1.97-.41s1.39.13,1.93.39c.54.26.96.63,1.25,1.11s.44,1.04.44,1.69h-2.25c0-.36-.13-.65-.38-.86s-.59-.31-1.02-.31c-.46,0-.82.1-1.1.29-.28.2-.41.47-.41.81,0,.32.08.56.25.73s.43.29.8.36l1.55.32c.92.19,1.61.51,2.06.97.45.46.67,1.1.67,1.92,0,.66-.16,1.24-.49,1.74-.33.5-.79.88-1.38,1.15s-1.29.41-2.08.41-1.44-.13-2.01-.39c-.57-.26-1.02-.63-1.33-1.11-.31-.48-.47-1.04-.47-1.69h2.25c0,.37.14.66.41.87.27.21.66.31,1.16.31s.92-.1,1.22-.29c.3-.19.45-.45.45-.78,0-.29-.07-.51-.22-.67-.15-.16-.39-.27-.73-.34l-1.58-.32c-.92-.19-1.62-.54-2.09-1.06-.47-.52-.71-1.21-.71-2.06Z" style="fill:#ff20b8; stroke-width:0px;"/><path d="m95.65,34.13v-6.47h2.27v6.31c0,.65.17,1.15.52,1.5s.84.52,1.47.52,1.14-.18,1.49-.53c.35-.35.52-.85.52-1.48v-6.31h2.27v6.47c0,.82-.17,1.54-.52,2.14-.35.61-.85,1.08-1.49,1.41-.64.34-1.4.5-2.27.5s-1.61-.17-2.25-.5c-.64-.33-1.13-.8-1.48-1.41-.35-.61-.53-1.33-.53-2.15Z" style="fill:#ff20b8; stroke-width:0px;"/><path d="m108.55,38.03h-2.27v-10.36h4c1.26,0,2.23.29,2.92.88s1.03,1.41,1.03,2.48c0,.67-.14,1.25-.43,1.72s-.72.86-1.29,1.16l1.82,4.12h-2.48l-1.55-3.63h-1.75v3.63Zm0-8.34v2.73h1.72c.49,0,.88-.12,1.16-.36.27-.24.41-.58.41-1.02s-.13-.77-.4-1c-.27-.23-.65-.34-1.15-.34h-1.74Z" style="fill:#ff20b8; stroke-width:0px;"/><path d="m118.18,27.67v10.36h-2.27v-10.36h2.27Zm3.64,6.31h-5.75v-2.04h5.75v2.04Zm.69-4.21h-6.38v-2.1h6.38v2.1Z" style="fill:#ff20b8; stroke-width:0px;"/><path d="m124.84,38.03h-2.37l3.7-10.36h2.21l3.68,10.36h-2.41l-.73-2.18h-3.35l-.74,2.18Zm2.14-6.3l-.74,2.21h2.04l-.74-2.21c-.06-.18-.11-.36-.17-.55-.06-.19-.09-.34-.11-.46-.02.12-.05.27-.1.46s-.11.37-.18.55Z" style="fill:#ff20b8; stroke-width:0px;"/><path d="m137.19,38.19c-1.04,0-1.93-.22-2.69-.65-.76-.43-1.34-1.05-1.75-1.85-.41-.8-.62-1.74-.62-2.83s.21-2.03.64-2.83c.43-.8,1.03-1.43,1.81-1.87.77-.44,1.68-.67,2.7-.67.87,0,1.64.16,2.32.47.68.31,1.23.75,1.66,1.32s.7,1.24.8,2.02h-2.39c-.15-.52-.44-.92-.86-1.2-.42-.28-.95-.42-1.57-.42-.56,0-1.04.13-1.45.38-.41.25-.72.61-.93,1.08-.21.47-.32,1.04-.32,1.7s.11,1.2.33,1.68.53.84.94,1.1c.41.26.88.38,1.44.38.63,0,1.17-.15,1.62-.44s.74-.7.88-1.21h2.35c-.12.77-.4,1.44-.85,2.02-.44.58-1.01,1.03-1.7,1.34-.69.32-1.47.48-2.34.48Z" style="fill:#ff20b8; stroke-width:0px;"/><path d="m150.17,38.03h-6.58v-10.36h6.58v2.1h-4.94l.63-.59v2.62h3.82v1.99h-3.82v2.73l-.63-.59h4.94v2.1Z" style="fill:#ff20b8; stroke-width:0px;"/><path d="m158.01,27.67v10.36h-2.27v-10.36h2.27Z" style="fill:#ff20b8; stroke-width:0px;"/><path d="m162.36,38.03h-2.2v-10.36h2.2l3.08,7.73,3.09-7.73h2.23v10.36h-2.2v-3.56c0-.36,0-.67.01-.91,0-.24.02-.46.03-.64.01-.18.04-.37.06-.57l-2.2,5.67h-2.07l-2.18-5.67c.06.38.1.8.12,1.25.01.45.02.96.02,1.53v2.9Z" style="fill:#ff20b8; stroke-width:0px;"/><path d="m175.19,27.67v10.36h-2.27v-10.36h2.27Zm1.93,6.92h-2.49v-2.02h1.99c.55,0,.96-.12,1.23-.36.27-.24.41-.6.41-1.08s-.14-.85-.41-1.08c-.27-.24-.68-.36-1.23-.36h-1.99v-2.02h2.49c.71,0,1.33.14,1.85.43.53.29.94.69,1.23,1.21.29.52.44,1.12.44,1.81s-.15,1.29-.44,1.81c-.29.52-.71.92-1.23,1.21-.53.29-1.15.43-1.85.43Z" style="fill:#ff20b8; stroke-width:0px;"/><path d="m191.65,32.83c0,1.05-.21,1.99-.64,2.79s-1.03,1.44-1.79,1.89c-.77.45-1.65.68-2.66.68s-1.88-.23-2.64-.68c-.76-.45-1.35-1.08-1.78-1.88-.42-.8-.64-1.73-.64-2.79s.21-1.99.64-2.79c.43-.81,1.02-1.44,1.79-1.89.76-.45,1.64-.68,2.64-.68s1.89.23,2.65.68c.76.45,1.36,1.08,1.78,1.88s.64,1.73.64,2.79Zm-2.39,0c0-.66-.11-1.23-.32-1.7s-.52-.83-.92-1.08c-.4-.25-.88-.38-1.44-.38s-1.04.13-1.44.38-.71.61-.92,1.08c-.21.47-.32,1.04-.32,1.7s.11,1.23.32,1.71c.21.48.52.84.92,1.09s.88.38,1.44.38,1.04-.13,1.44-.38c.4-.26.7-.62.92-1.1s.32-1.04.32-1.69Z" style="fill:#ff20b8; stroke-width:0px;"/><path d="m193.16,34.13v-6.47h2.27v6.31c0,.65.17,1.15.52,1.5s.84.52,1.47.52,1.14-.18,1.49-.53c.35-.35.52-.85.52-1.48v-6.31h2.27v6.47c0,.82-.17,1.54-.52,2.14-.35.61-.85,1.08-1.49,1.41-.64.34-1.4.5-2.27.5s-1.61-.17-2.25-.5c-.64-.33-1.13-.8-1.48-1.41-.35-.61-.53-1.33-.53-2.15Z" style="fill:#ff20b8; stroke-width:0px;"/><path d="m206.03,38.03h-2.24v-10.36h2.24l5.07,7.64h-.7v-7.64h2.24v10.36h-2.24l-5.07-7.63h.7v7.63Z" style="fill:#ff20b8; stroke-width:0px;"/><path d="m218.85,38.03h-4.06v-10.36h3.92c1.02,0,1.91.22,2.68.66.77.44,1.37,1.05,1.81,1.83.44.78.66,1.69.66,2.72s-.21,1.9-.64,2.67c-.42.77-1.01,1.38-1.76,1.82-.75.44-1.62.66-2.61.66Zm-1.79-9.32v8.32l-1.08-1.09h2.65c.6,0,1.11-.12,1.53-.36s.75-.59.97-1.05c.22-.46.34-1,.34-1.64s-.12-1.21-.36-1.67c-.24-.46-.58-.82-1.02-1.06-.44-.25-.98-.37-1.6-.37h-2.51l1.08-1.06Z" style="fill:#ff20b8; stroke-width:0px;"/><path d="m227.64,38.03h-2.2v-10.36h2.2l3.08,7.73,3.09-7.73h2.23v10.36h-2.2v-3.56c0-.36,0-.67.01-.91,0-.24.02-.46.03-.64.01-.18.04-.37.06-.57l-2.2,5.67h-2.07l-2.18-5.67c.06.38.1.8.12,1.25.01.45.02.96.02,1.53v2.9Z" style="fill:#ff20b8; stroke-width:0px;"/><path d="m244.78,38.03h-6.58v-10.36h6.58v2.1h-4.94l.63-.59v2.62h3.82v1.99h-3.82v2.73l-.63-.59h4.94v2.1Z" style="fill:#ff20b8; stroke-width:0px;"/><path d="m248.88,38.03h-2.24v-10.36h2.24l5.07,7.64h-.7v-7.64h2.24v10.36h-2.24l-5.07-7.63h.7v7.63Z" style="fill:#ff20b8; stroke-width:0px;"/><path d="m256.85,29.77v-2.1h8.15v2.1h-8.15Zm5.21-1.01v9.27h-2.27v-9.27h2.27Z" style="fill:#ff20b8; stroke-width:0px;"/><path d="m221.2,60.69h-2.37l3.7-10.36h2.21l3.68,10.36h-2.41l-.73-2.18h-3.35l-.74,2.18Zm2.14-6.3l-.74,2.21h2.04l-.74-2.21c-.06-.18-.11-.36-.17-.55-.06-.19-.09-.34-.11-.46-.02.12-.05.27-.1.46s-.11.37-.18.55Z" style="fill:#ff9f0e; stroke-width:0px;"/><path d="m231.9,50.33v10.36h-2.27v-10.36h2.27Z" style="fill:#ff9f0e; stroke-width:0px;"/><path d="m236.32,60.69h-2.27v-10.36h4c1.26,0,2.23.29,2.92.88s1.03,1.41,1.03,2.48c0,.67-.14,1.25-.43,1.72s-.72.86-1.29,1.16l1.82,4.12h-2.48l-1.55-3.63h-1.75v3.63Zm0-8.34v2.73h1.72c.49,0,.88-.12,1.16-.36.27-.24.41-.58.41-1.02s-.13-.77-.4-1c-.27-.23-.65-.34-1.15-.34h-1.74Z" style="fill:#ff9f0e; stroke-width:0px;"/><path d="m246.82,53.34c0-.62.16-1.18.49-1.66.33-.48.78-.86,1.35-1.13.57-.27,1.23-.41,1.97-.41s1.39.13,1.93.39c.54.26.96.63,1.25,1.11s.44,1.04.44,1.69h-2.25c0-.36-.13-.65-.38-.86s-.59-.31-1.02-.31c-.46,0-.82.1-1.1.29-.28.2-.41.47-.41.81,0,.32.08.56.25.73s.43.29.8.36l1.55.32c.92.19,1.61.51,2.06.97.45.46.67,1.1.67,1.92,0,.66-.16,1.24-.49,1.74-.33.5-.79.88-1.38,1.15s-1.29.41-2.08.41-1.44-.13-2.01-.39c-.57-.26-1.02-.63-1.33-1.11-.31-.48-.47-1.04-.47-1.69h2.25c0,.37.14.66.41.87.27.21.66.31,1.16.31s.92-.1,1.22-.29c.3-.19.45-.45.45-.78,0-.29-.07-.51-.22-.67-.15-.16-.39-.27-.73-.34l-1.58-.32c-.92-.19-1.62-.54-2.09-1.06-.47-.52-.71-1.21-.71-2.06Z" style="fill:#ff9f0e; stroke-width:0px;"/><path d="m254.98,52.43v-2.1h8.15v2.1h-8.15Zm5.21-1.01v9.27h-2.27v-9.27h2.27Z" style="fill:#ff9f0e; stroke-width:0px;"/><path d="m264.99,60.69h-2.37l3.7-10.36h2.21l3.68,10.36h-2.41l-.73-2.18h-3.35l-.74,2.18Zm2.14-6.3l-.74,2.21h2.04l-.74-2.21c-.06-.18-.11-.36-.17-.55-.06-.19-.09-.34-.11-.46-.02.12-.05.27-.1.46s-.11.37-.18.55Z" style="fill:#ff9f0e; stroke-width:0px;"/><path d="m277.34,60.86c-1.04,0-1.93-.22-2.69-.65-.76-.43-1.34-1.05-1.75-1.85-.41-.8-.62-1.74-.62-2.83s.21-2.03.64-2.83c.43-.8,1.03-1.43,1.81-1.87.77-.44,1.68-.67,2.7-.67.87,0,1.64.16,2.32.47.68.31,1.23.75,1.66,1.32s.7,1.24.8,2.02h-2.39c-.15-.52-.44-.92-.86-1.2-.42-.28-.95-.42-1.57-.42-.56,0-1.04.13-1.45.38-.41.25-.72.61-.93,1.08-.21.47-.32,1.04-.32,1.7s.11,1.2.33,1.68.53.84.94,1.1c.41.26.88.38,1.44.38.63,0,1.17-.15,1.62-.44s.74-.7.88-1.21h2.35c-.12.77-.4,1.44-.85,2.02-.44.58-1.01,1.03-1.7,1.34-.69.32-1.47.48-2.34.48Z" style="fill:#ff9f0e; stroke-width:0px;"/><path d="m286.01,50.33v10.36h-2.27v-10.36h2.27Zm6.41,0l-6.99,9.13v-3.42l4.31-5.71h2.67Zm-4.94,6.23l1.44-1.99,3.53,6.12h-2.62l-2.35-4.13Z" style="fill:#ff9f0e; stroke-width:0px;"/><path d="m91.68,127.86h-2.37l3.7-10.36h2.21l3.68,10.36h-2.41l-.73-2.18h-3.35l-.74,2.18Zm2.14-6.3l-.74,2.21h2.04l-.74-2.21c-.06-.18-.11-.36-.17-.55-.06-.19-.09-.34-.11-.46-.02.12-.05.27-.1.46s-.11.37-.18.55Z" style="fill:#faecd8; stroke-width:0px;"/><path d="m102.3,127.86h-2.2v-10.36h2.2l3.08,7.73,3.09-7.73h2.23v10.36h-2.2v-3.56c0-.36,0-.67.01-.91,0-.24.02-.46.03-.64.01-.18.04-.37.06-.57l-2.2,5.67h-2.07l-2.18-5.67c.06.38.1.8.12,1.25.01.45.02.96.02,1.53v2.9Z" style="fill:#faecd8; stroke-width:0px;"/><path d="m122.44,122.66c0,1.05-.21,1.99-.64,2.79s-1.03,1.44-1.79,1.89c-.77.45-1.65.68-2.66.68s-1.88-.23-2.64-.68c-.76-.45-1.35-1.08-1.78-1.88-.42-.8-.64-1.73-.64-2.79s.21-1.99.64-2.79c.43-.81,1.02-1.44,1.79-1.89.76-.45,1.64-.68,2.64-.68s1.89.23,2.65.68c.76.45,1.36,1.08,1.78,1.88s.64,1.73.64,2.79Zm-2.39,0c0-.66-.11-1.23-.32-1.7s-.52-.83-.92-1.08c-.4-.25-.88-.38-1.44-.38s-1.04.13-1.44.38-.71.61-.92,1.08c-.21.47-.32,1.04-.32,1.7s.11,1.23.32,1.71c.21.48.52.84.92,1.09s.88.38,1.44.38,1.04-.13,1.44-.38c.4-.26.7-.62.92-1.1s.32-1.04.32-1.69Z" style="fill:#faecd8; stroke-width:0px;"/><path d="m123.95,123.96v-6.47h2.27v6.31c0,.65.17,1.15.52,1.5s.84.52,1.47.52,1.14-.18,1.49-.53c.35-.35.52-.85.52-1.48v-6.31h2.27v6.47c0,.82-.17,1.54-.52,2.14-.35.61-.85,1.08-1.49,1.41-.64.34-1.4.5-2.27.5s-1.61-.17-2.25-.5c-.64-.33-1.13-.8-1.48-1.41-.35-.61-.53-1.33-.53-2.15Z" style="fill:#faecd8; stroke-width:0px;"/><path d="m136.81,127.86h-2.24v-10.36h2.24l5.07,7.64h-.7v-7.64h2.24v10.36h-2.24l-5.07-7.63h.7v7.63Z" style="fill:#faecd8; stroke-width:0px;"/><path d="m144.78,119.6v-2.1h8.15v2.1h-8.15Zm5.21-1.01v9.27h-2.27v-9.27h2.27Z" style="fill:#faecd8; stroke-width:0px;"/><path d="m158.79,119.77c-.35,0-.64-.12-.88-.36-.24-.24-.36-.53-.36-.88s.12-.63.36-.87.53-.35.88-.35.62.12.86.35c.24.23.36.52.36.87s-.12.64-.36.88c-.24.24-.52.36-.86.36Zm-1.06,8.09v-7h2.16v7h-2.16Z" style="fill:#faecd8; stroke-width:0px;"/><path d="m163.67,127.86h-2.16v-7h2.03l.14.73c.21-.3.51-.53.89-.7s.8-.25,1.25-.25c.83,0,1.48.25,1.94.76s.69,1.22.69,2.13v4.33h-2.16v-3.81c0-.44-.11-.79-.34-1.06-.22-.27-.52-.4-.9-.4-.43,0-.77.13-1.02.39s-.38.6-.38,1.04v3.84Z" style="fill:#faecd8; stroke-width:0px;"/><path d="m176.24,117.5v10.36h-2.27v-10.36h2.27Z" style="fill:#faecd8; stroke-width:0px;"/><path d="m180.16,127.86h-2.03v-10.56h2.16v4.37c.21-.32.53-.57.96-.76.42-.19.89-.29,1.39-.29.65,0,1.22.16,1.7.48.48.32.85.76,1.11,1.33.26.57.39,1.24.39,2,0,.72-.14,1.35-.43,1.9-.29.55-.68.97-1.19,1.27-.51.3-1.09.45-1.76.45-.49,0-.93-.1-1.32-.3-.4-.2-.69-.46-.88-.78l-.11.9Zm.14-3.54c0,.35.07.65.22.92.14.27.34.47.6.62.26.14.55.22.89.22s.64-.07.89-.22c.25-.15.44-.35.57-.62s.2-.56.2-.91-.07-.65-.2-.91c-.14-.26-.33-.47-.57-.62-.25-.15-.54-.22-.89-.22s-.63.07-.89.22c-.26.15-.46.35-.6.61-.15.26-.22.57-.22.92Z" style="fill:#faecd8; stroke-width:0px;"/><path d="m186.58,125.65h2.04c.02.24.12.43.29.57.18.14.43.21.76.21s.58-.06.74-.17c.16-.11.24-.26.24-.43,0-.1-.04-.21-.12-.31-.08-.1-.25-.18-.51-.24l-1.29-.28c-.64-.14-1.12-.37-1.44-.68-.32-.31-.48-.78-.48-1.39,0-.48.13-.9.39-1.24.26-.34.6-.6,1.04-.78.44-.18.94-.27,1.5-.27s1.02.1,1.44.29c.42.2.74.47.97.83.23.35.35.77.35,1.25h-2.04c0-.24-.07-.44-.21-.58-.14-.14-.34-.22-.6-.22-.24,0-.44.06-.58.17-.15.12-.22.27-.22.46,0,.3.25.5.76.62l1.3.28c.58.12,1.02.33,1.32.62s.46.72.46,1.28c0,.5-.13.92-.39,1.29s-.63.64-1.09.83c-.47.19-1,.29-1.61.29-.92,0-1.66-.22-2.2-.67-.54-.44-.81-1.02-.81-1.73Z" style="fill:#faecd8; stroke-width:0px;"/><path d="m144.08,50.33v10.36h-2.27v-10.36h2.27Zm-1.86,10.36v-2.1h5.95v2.1h-5.95Z" style="fill:#20ffa6; stroke-width:0px;"/><path d="m151.29,60.69h-2.37l3.7-10.36h2.21l3.68,10.36h-2.41l-.73-2.18h-3.35l-.74,2.18Zm2.14-6.3l-.74,2.21h2.04l-.74-2.21c-.06-.18-.11-.36-.17-.55-.06-.19-.09-.34-.11-.46-.02.12-.05.27-.1.46-.05.18-.11.37-.18.55Z" style="fill:#20ffa6; stroke-width:0px;"/><path d="m161.96,60.69h-2.24v-10.36h2.24l5.07,7.64h-.7v-7.64h2.24v10.36h-2.24l-5.07-7.63h.7v7.63Z" style="fill:#20ffa6; stroke-width:0px;"/><path d="m174.78,60.69h-4.06v-10.36h3.92c1.02,0,1.91.22,2.68.66.77.44,1.37,1.05,1.81,1.83.44.78.66,1.69.66,2.72s-.21,1.9-.64,2.67c-.42.77-1.01,1.38-1.76,1.82-.75.44-1.62.66-2.61.66Zm-1.79-9.32v8.32l-1.08-1.09h2.65c.6,0,1.11-.12,1.53-.36.42-.24.75-.59.97-1.05s.34-1,.34-1.64-.12-1.21-.36-1.67c-.24-.46-.58-.82-1.02-1.06s-.98-.37-1.6-.37h-2.51l1.08-1.06Z" style="fill:#20ffa6; stroke-width:0px;"/><path d="m183.65,50.33v10.36h-2.27v-10.36h2.27Zm3.64,6.31h-5.75v-2.04h5.75v2.04Zm.69-4.21h-6.38v-2.1h6.38v2.1Z" style="fill:#20ffa6; stroke-width:0px;"/><path d="m191.79,50.33v10.36h-2.27v-10.36h2.27Z" style="fill:#20ffa6; stroke-width:0px;"/><path d="m196.22,50.33v10.36h-2.27v-10.36h2.27Zm-1.86,10.36v-2.1h5.95v2.1h-5.95Z" style="fill:#20ffa6; stroke-width:0px;"/><path d="m204,50.33v10.36h-2.27v-10.36h2.27Zm-1.86,10.36v-2.1h5.95v2.1h-5.95Z" style="fill:#20ffa6; stroke-width:0px;"/><path d="m3.35,50.33v10.36H1.08v-10.36h2.27Zm-1.86,10.36v-2.1h5.95v2.1H1.48Z" style="fill:#ff2056; stroke-width:0px;"/><path d="m10.56,60.69h-2.37l3.7-10.36h2.21l3.68,10.36h-2.41l-.73-2.18h-3.35l-.74,2.18Zm2.14-6.3l-.74,2.21h2.04l-.74-2.21c-.06-.18-.11-.36-.17-.55-.06-.19-.09-.34-.11-.46-.02.12-.05.27-.1.46s-.11.37-.18.55Z" style="fill:#ff2056; stroke-width:0px;"/><path d="m21.22,60.69h-2.24v-10.36h2.24l5.07,7.64h-.7v-7.64h2.24v10.36h-2.24l-5.07-7.63h.7v7.63Z" style="fill:#ff2056; stroke-width:0px;"/><path d="m34.05,60.69h-4.06v-10.36h3.92c1.02,0,1.91.22,2.68.66.77.44,1.37,1.05,1.81,1.83.44.78.66,1.69.66,2.72s-.21,1.9-.64,2.67c-.42.77-1.01,1.38-1.76,1.82-.75.44-1.62.66-2.61.66Zm-1.79-9.32v8.32l-1.08-1.09h2.65c.6,0,1.11-.12,1.53-.36s.75-.59.97-1.05c.22-.46.34-1,.34-1.64s-.12-1.21-.36-1.67c-.24-.46-.58-.82-1.02-1.06-.44-.25-.98-.37-1.6-.37h-2.51l1.08-1.06Z" style="fill:#ff2056; stroke-width:0px;"/><path d="m43.55,52.43v-2.1h8.15v2.1h-8.15Zm5.21-1.01v9.27h-2.27v-9.27h2.27Z" style="fill:#ff2056; stroke-width:0px;"/><path d="m55.33,60.69h-2.27v-10.36h4c1.26,0,2.23.29,2.92.88s1.03,1.41,1.03,2.48c0,.67-.14,1.25-.43,1.72s-.72.86-1.29,1.16l1.82,4.12h-2.48l-1.55-3.63h-1.75v3.63Zm0-8.34v2.73h1.72c.49,0,.88-.12,1.16-.36.27-.24.41-.58.41-1.02s-.13-.77-.4-1c-.27-.23-.65-.34-1.15-.34h-1.74Z" style="fill:#ff2056; stroke-width:0px;"/><path d="m69.27,60.69h-6.58v-10.36h6.58v2.1h-4.94l.63-.59v2.62h3.82v1.99h-3.82v2.73l-.63-.59h4.94v2.1Z" style="fill:#ff2056; stroke-width:0px;"/><path d="m72.55,60.69h-2.37l3.7-10.36h2.21l3.68,10.36h-2.41l-.73-2.18h-3.35l-.74,2.18Zm2.14-6.3l-.74,2.21h2.04l-.74-2.21c-.06-.18-.11-.36-.17-.55-.06-.19-.09-.34-.11-.46-.02.12-.05.27-.1.46s-.11.37-.18.55Z" style="fill:#ff2056; stroke-width:0px;"/><path d="m79.27,52.43v-2.1h8.15v2.1h-8.15Zm5.21-1.01v9.27h-2.27v-9.27h2.27Z" style="fill:#ff2056; stroke-width:0px;"/><path d="m90.97,60.69h-2.2v-10.36h2.2l3.08,7.73,3.09-7.73h2.23v10.36h-2.2v-3.56c0-.36,0-.67.01-.91,0-.24.02-.46.03-.64.01-.18.04-.37.06-.57l-2.2,5.67h-2.07l-2.18-5.67c.06.38.1.8.12,1.25.01.45.02.96.02,1.53v2.9Z" style="fill:#ff2056; stroke-width:0px;"/><path d="m108.11,60.69h-6.58v-10.36h6.58v2.1h-4.94l.63-.59v2.62h3.82v1.99h-3.82v2.73l-.63-.59h4.94v2.1Z" style="fill:#ff2056; stroke-width:0px;"/><path d="m112.21,60.69h-2.24v-10.36h2.24l5.07,7.64h-.7v-7.64h2.24v10.36h-2.24l-5.07-7.63h.7v7.63Z" style="fill:#ff2056; stroke-width:0px;"/><path d="m120.17,52.43v-2.1h8.15v2.1h-8.15Zm5.21-1.01v9.27h-2.27v-9.27h2.27Z" style="fill:#ff2056; stroke-width:0px;"/><path d="m2.27,38.03H0v-10.36h4c1.26,0,2.23.29,2.92.88s1.03,1.41,1.03,2.48c0,.67-.14,1.25-.43,1.72s-.72.86-1.29,1.16l1.82,4.12h-2.48l-1.55-3.63h-1.75v3.63Zm0-8.34v2.73h1.72c.49,0,.88-.12,1.16-.36.27-.24.41-.58.41-1.02s-.13-.77-.4-1c-.27-.23-.65-.34-1.15-.34h-1.74Z" style="fill:#16ff58; stroke-width:0px;"/><path d="m16.21,38.03h-6.58v-10.36h6.58v2.1h-4.94l.63-.59v2.62h3.82v1.99h-3.82v2.73l-.63-.59h4.94v2.1Z" style="fill:#16ff58; stroke-width:0px;"/><path d="m22.55,38.19c-1.04,0-1.93-.22-2.69-.65-.76-.43-1.34-1.05-1.75-1.85-.41-.8-.62-1.74-.62-2.83s.21-2.03.64-2.83c.43-.8,1.03-1.43,1.81-1.87.77-.44,1.68-.67,2.7-.67.87,0,1.64.16,2.32.47.68.31,1.23.75,1.66,1.32s.7,1.24.8,2.02h-2.39c-.15-.52-.44-.92-.86-1.2-.42-.28-.95-.42-1.57-.42-.56,0-1.04.13-1.45.38-.41.25-.72.61-.93,1.08-.21.47-.32,1.04-.32,1.7s.11,1.2.33,1.68.53.84.94,1.1c.41.26.88.38,1.44.38.63,0,1.17-.15,1.62-.44s.74-.7.88-1.21h2.35c-.12.77-.4,1.44-.85,2.02-.44.58-1.01,1.03-1.7,1.34-.69.32-1.47.48-2.34.48Z" style="fill:#16ff58; stroke-width:0px;"/><path d="m30.95,34.09l-3.5-6.43h2.53l1.74,3.36c.08.16.16.31.22.44s.12.27.17.4c.05-.08.09-.17.13-.26.04-.09.08-.18.13-.28.05-.1.1-.2.15-.31l1.74-3.35h2.46l-3.5,6.43v3.93h-2.27v-3.93Z" style="fill:#16ff58; stroke-width:0px;"/><path d="m41.58,38.19c-1.04,0-1.93-.22-2.69-.65-.76-.43-1.34-1.05-1.75-1.85-.41-.8-.62-1.74-.62-2.83s.21-2.03.64-2.83c.43-.8,1.03-1.43,1.81-1.87.77-.44,1.68-.67,2.7-.67.87,0,1.64.16,2.32.47.68.31,1.23.75,1.66,1.32s.7,1.24.8,2.02h-2.39c-.15-.52-.44-.92-.86-1.2-.42-.28-.95-.42-1.57-.42-.56,0-1.04.13-1.45.38-.41.25-.72.61-.93,1.08-.21.47-.32,1.04-.32,1.7s.11,1.2.33,1.68.53.84.94,1.1c.41.26.88.38,1.44.38.63,0,1.17-.15,1.62-.44s.74-.7.88-1.21h2.35c-.12.77-.4,1.44-.85,2.02-.44.58-1.01,1.03-1.7,1.34-.69.32-1.47.48-2.34.48Z" style="fill:#16ff58; stroke-width:0px;"/><path d="m50.25,27.67v10.36h-2.27v-10.36h2.27Zm-1.86,10.36v-2.1h5.95v2.1h-5.95Z" style="fill:#16ff58; stroke-width:0px;"/><path d="m62.34,38.03h-6.58v-10.36h6.58v2.1h-4.94l.63-.59v2.62h3.82v1.99h-3.82v2.73l-.63-.59h4.94v2.1Z" style="fill:#16ff58; stroke-width:0px;"/><path d="m68.26,38.03h-4.06v-10.36h3.92c1.02,0,1.91.22,2.68.66.77.44,1.37,1.05,1.81,1.83.44.78.66,1.69.66,2.72s-.21,1.9-.64,2.67c-.42.77-1.01,1.38-1.76,1.82-.75.44-1.62.66-2.61.66Zm-1.79-9.32v8.32l-1.08-1.09h2.65c.6,0,1.11-.12,1.53-.36s.75-.59.97-1.05c.22-.46.34-1,.34-1.64s-.12-1.21-.36-1.67c-.24-.46-.58-.82-1.02-1.06-.44-.25-.98-.37-1.6-.37h-2.51l1.08-1.06Z" style="fill:#16ff58; stroke-width:0px;"/><path d="m-.22,11.29v-6.47h2.27v6.31c0,.65.17,1.15.52,1.5s.84.52,1.47.52,1.14-.18,1.49-.53c.35-.35.52-.85.52-1.48v-6.31h2.27v6.47c0,.82-.17,1.54-.52,2.14-.35.61-.85,1.08-1.49,1.41-.64.34-1.4.5-2.27.5s-1.61-.17-2.25-.5c-.64-.33-1.13-.8-1.48-1.41-.35-.61-.53-1.33-.53-2.15Z" style="fill:#cd29f6; stroke-width:0px;"/><path d="m12.65,15.19h-2.24V4.83h2.24l5.07,7.64h-.7v-7.64h2.24v10.36h-2.24l-5.07-7.63h.7v7.63Z" style="fill:#cd29f6; stroke-width:0px;"/><path d="m25.47,15.19h-4.06V4.83h3.92c1.02,0,1.91.22,2.68.66.77.44,1.37,1.05,1.81,1.83.44.78.66,1.69.66,2.72s-.21,1.9-.64,2.67c-.42.77-1.01,1.38-1.76,1.82-.75.44-1.62.66-2.61.66Zm-1.79-9.32v8.32l-1.08-1.09h2.65c.6,0,1.11-.12,1.53-.36s.75-.59.97-1.05c.22-.46.34-1,.34-1.64s-.12-1.21-.36-1.67c-.24-.46-.58-.82-1.02-1.06-.44-.25-.98-.37-1.6-.37h-2.51l1.08-1.06Z" style="fill:#cd29f6; stroke-width:0px;"/><path d="m38.64,15.19h-6.58V4.83h6.58v2.1h-4.94l.63-.59v2.62h3.82v1.99h-3.82v2.73l-.63-.59h4.94v2.1Z" style="fill:#cd29f6; stroke-width:0px;"/><path d="m42.77,15.19h-2.27V4.83h4c1.26,0,2.23.29,2.92.88s1.03,1.41,1.03,2.48c0,.67-.14,1.25-.43,1.72s-.72.86-1.29,1.16l1.82,4.12h-2.48l-1.55-3.63h-1.75v3.63Zm0-8.34v2.73h1.72c.49,0,.88-.12,1.16-.36.27-.24.41-.58.41-1.02s-.13-.77-.4-1c-.27-.23-.65-.34-1.15-.34h-1.74Z" style="fill:#cd29f6; stroke-width:0px;"/><path d="m54.8,6.79c-.63,0-1.15.14-1.57.41s-.74.66-.95,1.15c-.21.49-.32,1.08-.32,1.75s.12,1.27.36,1.74c.24.47.58.81,1,1.04.42.23.91.34,1.46.34.47,0,.86-.06,1.19-.18.33-.12.59-.29.79-.5.2-.21.35-.46.45-.73.1-.27.15-.55.15-.84v-.83l1.08,1.08h-3.84v-1.99h4.87v5.95h-1.95l-.18-1.41.25.21c-.15.27-.38.51-.69.71-.31.21-.68.36-1.09.48-.42.11-.86.17-1.32.17-.96,0-1.81-.22-2.56-.67-.74-.44-1.32-1.06-1.74-1.85-.42-.79-.63-1.72-.63-2.79s.22-1.97.66-2.78c.44-.81,1.05-1.44,1.85-1.9.79-.46,1.72-.69,2.79-.69.83,0,1.58.15,2.25.45.67.3,1.21.73,1.63,1.29.42.56.67,1.21.74,1.95h-2.38c-.13-.55-.41-.95-.84-1.2-.43-.25-.91-.37-1.46-.37Z" style="fill:#cd29f6; stroke-width:0px;"/><path d="m63.62,15.19h-2.27V4.83h4c1.26,0,2.23.29,2.92.88s1.03,1.41,1.03,2.48c0,.67-.14,1.25-.43,1.72s-.72.86-1.29,1.16l1.82,4.12h-2.48l-1.55-3.63h-1.75v3.63Zm0-8.34v2.73h1.72c.49,0,.88-.12,1.16-.36.27-.24.41-.58.41-1.02s-.13-.77-.4-1c-.27-.23-.65-.34-1.15-.34h-1.74Z" style="fill:#cd29f6; stroke-width:0px;"/><path d="m80.56,9.99c0,1.05-.21,1.99-.64,2.79s-1.03,1.44-1.79,1.89c-.77.45-1.65.68-2.66.68s-1.88-.23-2.64-.68c-.76-.45-1.35-1.08-1.78-1.88-.42-.8-.64-1.73-.64-2.79s.21-1.99.64-2.79c.43-.81,1.02-1.44,1.79-1.89.76-.45,1.64-.68,2.64-.68s1.89.23,2.65.68c.76.45,1.36,1.08,1.78,1.88s.64,1.73.64,2.79Zm-2.39,0c0-.66-.11-1.23-.32-1.7s-.52-.83-.92-1.08c-.4-.25-.88-.38-1.44-.38s-1.04.13-1.44.38-.71.61-.92,1.08c-.21.47-.32,1.04-.32,1.7s.11,1.23.32,1.71c.21.48.52.84.92,1.09s.88.38,1.44.38,1.04-.13,1.44-.38c.4-.26.7-.62.92-1.1s.32-1.04.32-1.69Z" style="fill:#cd29f6; stroke-width:0px;"/><path d="m82.07,11.29v-6.47h2.27v6.31c0,.65.17,1.15.52,1.5s.84.52,1.47.52,1.14-.18,1.49-.53c.35-.35.52-.85.52-1.48v-6.31h2.27v6.47c0,.82-.17,1.54-.52,2.14-.35.61-.85,1.08-1.49,1.41-.64.34-1.4.5-2.27.5s-1.61-.17-2.25-.5c-.64-.33-1.13-.8-1.48-1.41-.35-.61-.53-1.33-.53-2.15Z" style="fill:#cd29f6; stroke-width:0px;"/><path d="m94.94,15.19h-2.24V4.83h2.24l5.07,7.64h-.7v-7.64h2.24v10.36h-2.24l-5.07-7.63h.7v7.63Z" style="fill:#cd29f6; stroke-width:0px;"/><path d="m107.76,15.19h-4.06V4.83h3.92c1.02,0,1.91.22,2.68.66.77.44,1.37,1.05,1.81,1.83.44.78.66,1.69.66,2.72s-.21,1.9-.64,2.67c-.42.77-1.01,1.38-1.76,1.82-.75.44-1.62.66-2.61.66Zm-1.79-9.32v8.32l-1.08-1.09h2.65c.6,0,1.11-.12,1.53-.36s.75-.59.97-1.05c.22-.46.34-1,.34-1.64s-.12-1.21-.36-1.67c-.24-.46-.58-.82-1.02-1.06-.44-.25-.98-.37-1.6-.37h-2.51l1.08-1.06Z" style="fill:#cd29f6; stroke-width:0px;"/><path d="m120.3,15.19l-3.11-10.36h2.37l1.36,4.49c.09.31.18.63.27.97.08.34.17.77.25,1.28.08-.51.17-.94.25-1.27.08-.34.17-.66.27-.98l1.27-4.49h2.53l1.22,4.49c.08.32.17.65.25.99.08.35.17.77.27,1.26.1-.52.2-.95.28-1.28.08-.33.17-.65.27-.94l1.39-4.52h2.31l-3.16,10.36h-2.21l-1.89-6.8-1.95,6.8h-2.23Z" style="fill:#cd29f6; stroke-width:0px;"/><path d="m139.61,15.19h-6.58V4.83h6.58v2.1h-4.94l.63-.59v2.62h3.82v1.99h-3.82v2.73l-.63-.59h4.94v2.1Z" style="fill:#cd29f6; stroke-width:0px;"/><path d="m143.74,4.83v10.36h-2.27V4.83h2.27Zm-1.86,10.36v-2.1h5.95v2.1h-5.95Z" style="fill:#cd29f6; stroke-width:0px;"/><path d="m151.53,4.83v10.36h-2.27V4.83h2.27Zm-1.86,10.36v-2.1h5.95v2.1h-5.95Z" style="fill:#cd29f6; stroke-width:0px;"/><path d="m156.12,7.84c0-.62.16-1.18.49-1.66.33-.48.78-.86,1.35-1.13.57-.27,1.23-.41,1.97-.41s1.39.13,1.93.39c.54.26.96.63,1.25,1.11s.44,1.04.44,1.69h-2.25c0-.36-.13-.65-.38-.86s-.59-.31-1.02-.31c-.46,0-.82.1-1.1.29-.28.2-.41.47-.41.81,0,.32.08.56.25.73s.43.29.8.36l1.55.32c.92.19,1.61.51,2.06.97.45.46.67,1.1.67,1.92,0,.66-.16,1.24-.49,1.74-.33.5-.79.88-1.38,1.15s-1.29.41-2.08.41-1.44-.13-2.01-.39c-.57-.26-1.02-.63-1.33-1.11-.31-.48-.47-1.04-.47-1.69h2.25c0,.37.14.66.41.87.27.21.66.31,1.16.31s.92-.1,1.22-.29c.3-.19.45-.45.45-.78,0-.29-.07-.51-.22-.67-.15-.16-.39-.27-.73-.34l-1.58-.32c-.92-.19-1.62-.54-2.09-1.06-.47-.52-.71-1.21-.71-2.06Z" style="fill:#cd29f6; stroke-width:0px;"/><path d="m213.41,45.77v19.28-19.28Z" style="fill:none; stroke:#1f2420; stroke-miterlimit:10; stroke-width:3px;"/><path d="m80.21,22.01v19.28-19.28Z" style="fill:none; stroke:#1f2420; stroke-miterlimit:10; stroke-width:3px;"/><path d="m135.26,45.77v19.28-19.28Z" style="fill:none; stroke:#1f2420; stroke-miterlimit:10; stroke-width:3px;"/><path d="m292.45,84.53H0h292.45Z" style="fill:none; stroke:#1f2420; stroke-miterlimit:10; stroke-width:3px;"/><path d="m171.09.73v19.28V.73Z" style="fill:none; stroke:#1f2420; stroke-miterlimit:10; stroke-width:3px;"/></svg>